  0
SECTION
  2
HEADER
  9
$ACADVER
  1
AC1027
  9
$ACADMAINTVER
 70
105
  9
$DWGCODEPAGE
  3
ANSI_1252
  9
$LASTSAVEDBY
  1
ezdxf
  9
$REQUIREDVERSIONS
160
0
  9
$INSBASE
 10
0.0
 20
0.0
 30
0.0
  9
$EXTMIN
 10
-100.0
 20
-100.0
 30
-100.0
  9
$EXTMAX
 10
100.0
 20
100.0
 30
100.0
  9
$LIMMIN
 10
0.0
 20
0.0
  9
$LIMMAX
 10
420.0
 20
297.0
  9
$ORTHOMODE
 70
0
  9
$REGENMODE
 70
1
  9
$FILLMODE
 70
1
  9
$QTEXTMODE
 70
0
  9
$MIRRTEXT
 70
1
  9
$LTSCALE
 40
1.0
  9
$ATTMODE
 70
1
  9
$TEXTSIZE
 40
2.5
  9
$TRACEWID
 40
1.0
  9
$TEXTSTYLE
  7
OpenSans
  9
$CLAYER
  8
0
  9
$CELTYPE
  6
ByLayer
  9
$CECOLOR
 62
256
  9
$CELTSCALE
 40
1.0
  9
$DISPSILH
 70
0
  9
$DIMSCALE
 40
1.0
  9
$DIMASZ
 40
0.175
  9
$DIMEXO
 40
0.125
  9
$DIMDLI
 40
3.75
  9
$DIMRND
 40
0.0
  9
$DIMDLE
 40
0.0
  9
$DIMEXE
 40
0.375
  9
$DIMTP
 40
0.0
  9
$DIMTM
 40
0.0
  9
$DIMTXT
 40
0.25
  9
$DIMCEN
 40
2.5
  9
$DIMTSZ
 40
0.0
  9
$DIMTOL
 70
0
  9
$DIMLIM
 70
0
  9
$DIMTIH
 70
0
  9
$DIMTOH
 70
0
  9
$DIMSE1
 70
0
  9
$DIMSE2
 70
0
  9
$DIMTAD
 70
1
  9
$DIMZIN
 70
8
  9
$DIMBLK
  1
ARCHTICK
  9
$DIMASO
 70
1
  9
$DIMSHO
 70
1
  9
$DIMPOST
  1

  9
$DIMAPOST
  1

  9
$DIMALT
 70
0
  9
$DIMALTD
 70
3
  9
$DIMALTF
 40
0.03937007874
  9
$DIMLFAC
 40
100.0
  9
$DIMTOFL
 70
1
  9
$DIMTVP
 40
0.0
  9
$DIMTIX
 70
0
  9
$DIMSOXD
 70
0
  9
$DIMSAH
 70
0
  9
$DIMBLK1
  1

  9
$DIMBLK2
  1

  9
$DIMSTYLE
  2
EZDXF
  9
$DIMCLRD
 70
0
  9
$DIMCLRE
 70
0
  9
$DIMCLRT
 70
0
  9
$DIMTFAC
 40
1.0
  9
$DIMGAP
 40
0.1
  9
$DIMJUST
 70
0
  9
$DIMSD1
 70
0
  9
$DIMSD2
 70
0
  9
$DIMTOLJ
 70
0
  9
$DIMTZIN
 70
8
  9
$DIMALTZ
 70
0
  9
$DIMALTTZ
 70
0
  9
$DIMUPT
 70
1
  9
$DIMDEC
 70
2
  9
$DIMTDEC
 70
2
  9
$DIMALTU
 70
2
  9
$DIMALTTD
 70
3
  9
$DIMTXSTY
  7
OpenSansCondensed-Light
  9
$DIMAUNIT
 70
0
  9
$DIMADEC
 70
0
  9
$DIMALTRND
 40
0.0
  9
$DIMAZIN
 70
0
  9
$DIMDSEP
 70
46
  9
$DIMATFIT
 70
3
  9
$DIMFRAC
 70
0
  9
$DIMLDRBLK
  1

  9
$DIMLUNIT
 70
2
  9
$DIMLWD
 70
-2
  9
$DIMLWE
 70
-2
  9
$DIMTMOVE
 70
2
  9
$DIMFXL
 40
1.0
  9
$DIMFXLON
 70
0
  9
$DIMJOGANG
 40
0.785398163397
  9
$DIMTFILL
 70
0
  9
$DIMTFILLCLR
 70
0
  9
$DIMARCSYM
 70
0
  9
$DIMLTYPE
  6

  9
$DIMLTEX1
  6

  9
$DIMLTEX2
  6

  9
$DIMTXTDIRECTION
 70
0
  9
$LUNITS
 70
2
  9
$LUPREC
 70
4
  9
$SKETCHINC
 40
1.0
  9
$FILLETRAD
 40
10.0
  9
$AUNITS
 70
0
  9
$AUPREC
 70
2
  9
$MENU
  1
.
  9
$ELEVATION
 40
0.0
  9
$PELEVATION
 40
0.0
  9
$THICKNESS
 40
0.0
  9
$LIMCHECK
 70
0
  9
$CHAMFERA
 40
0.0
  9
$CHAMFERB
 40
0.0
  9
$CHAMFERC
 40
0.0
  9
$CHAMFERD
 40
0.0
  9
$SKPOLY
 70
0
  9
$TDCREATE
 40
2458997.401898148
  9
$TDUCREATE
 40
2458532.153996898
  9
$TDUPDATE
 40
2458997.4025462964
  9
$TDUUPDATE
 40
2458532.1544311
  9
$TDINDWG
 40
0.0
  9
$TDUSRTIMER
 40
0.0
  9
$USRTIMER
 70
1
  9
$ANGBASE
 50
0.0
  9
$ANGDIR
 70
0
  9
$PDMODE
 70
0
  9
$PDSIZE
 40
0.0
  9
$PLINEWID
 40
0.0
  9
$SPLFRAME
 70
0
  9
$SPLINETYPE
 70
6
  9
$SPLINESEGS
 70
8
  9
$HANDSEED
  5
2F0
  9
$SURFTAB1
 70
6
  9
$SURFTAB2
 70
6
  9
$SURFTYPE
 70
6
  9
$SURFU
 70
6
  9
$SURFV
 70
6
  9
$UCSBASE
  2

  9
$UCSNAME
  2

  9
$UCSORG
 10
0.0
 20
0.0
 30
0.0
  9
$UCSXDIR
 10
1.0
 20
0.0
 30
0.0
  9
$UCSYDIR
 10
0.0
 20
1.0
 30
0.0
  9
$UCSORTHOREF
  2

  9
$UCSORTHOVIEW
 70
0
  9
$UCSORGTOP
 10
0.0
 20
0.0
 30
0.0
  9
$UCSORGBOTTOM
 10
0.0
 20
0.0
 30
0.0
  9
$UCSORGLEFT
 10
0.0
 20
0.0
 30
0.0
  9
$UCSORGRIGHT
 10
0.0
 20
0.0
 30
0.0
  9
$UCSORGFRONT
 10
0.0
 20
0.0
 30
0.0
  9
$UCSORGBACK
 10
0.0
 20
0.0
 30
0.0
  9
$PUCSBASE
  2

  9
$PUCSNAME
  2

  9
$PUCSORG
 10
0.0
 20
0.0
 30
0.0
  9
$PUCSXDIR
 10
1.0
 20
0.0
 30
0.0
  9
$PUCSYDIR
 10
0.0
 20
1.0
 30
0.0
  9
$PUCSORTHOREF
  2

  9
$PUCSORTHOVIEW
 70
0
  9
$PUCSORGTOP
 10
0.0
 20
0.0
 30
0.0
  9
$PUCSORGBOTTOM
 10
0.0
 20
0.0
 30
0.0
  9
$PUCSORGLEFT
 10
0.0
 20
0.0
 30
0.0
  9
$PUCSORGRIGHT
 10
0.0
 20
0.0
 30
0.0
  9
$PUCSORGFRONT
 10
0.0
 20
0.0
 30
0.0
  9
$PUCSORGBACK
 10
0.0
 20
0.0
 30
0.0
  9
$USERI1
 70
0
  9
$USERI2
 70
0
  9
$USERI3
 70
0
  9
$USERI4
 70
0
  9
$USERI5
 70
0
  9
$USERR1
 40
0.0
  9
$USERR2
 40
0.0
  9
$USERR3
 40
0.0
  9
$USERR4
 40
0.0
  9
$USERR5
 40
0.0
  9
$WORLDVIEW
 70
1
  9
$SHADEDGE
 70
3
  9
$SHADEDIF
 70
70
  9
$TILEMODE
 70
1
  9
$MAXACTVP
 70
64
  9
$PINSBASE
 10
0.0
 20
0.0
 30
0.0
  9
$PLIMCHECK
 70
0
  9
$PEXTMIN
 10
1e+20
 20
1e+20
 30
1e+20
  9
$PEXTMAX
 10
-1e+20
 20
-1e+20
 30
-1e+20
  9
$PLIMMIN
 10
0.0
 20
0.0
  9
$PLIMMAX
 10
420.0
 20
297.0
  9
$UNITMODE
 70
0
  9
$VISRETAIN
 70
1
  9
$PLINEGEN
 70
0
  9
$PSLTSCALE
 70
1
  9
$TREEDEPTH
 70
3020
  9
$CMLSTYLE
  2
Standard
  9
$CMLJUST
 70
0
  9
$CMLSCALE
 40
20.0
  9
$PROXYGRAPHICS
 70
1
  9
$MEASUREMENT
 70
1
  9
$CELWEIGHT
370
-1
  9
$ENDCAPS
280
0
  9
$JOINSTYLE
280
0
  9
$LWDISPLAY
290
0
  9
$INSUNITS
 70
6
  9
$HYPERLINKBASE
  1

  9
$STYLESHEET
  1

  9
$XEDIT
290
1
  9
$CEPSNTYPE
380
0
  9
$PSTYLEMODE
290
1
  9
$FINGERPRINTGUID
  2
CD0CAED6-9FBA-11EA-9107-38C9860EE9BF
  9
$VERSIONGUID
  2
EE7BD77C-9FBA-11EA-9107-38C9860EE9BF
  9
$EXTNAMES
290
1
  9
$PSVPSCALE
 40
0.0
  9
$OLESTARTUP
290
0
  9
$SORTENTS
280
127
  9
$INDEXCTL
280
0
  9
$HIDETEXT
280
1
  9
$XCLIPFRAME
280
2
  9
$HALOGAP
280
0
  9
$OBSCOLOR
 70
257
  9
$OBSLTYPE
280
0
  9
$INTERSECTIONDISPLAY
280
0
  9
$INTERSECTIONCOLOR
 70
257
  9
$DIMASSOC
280
2
  9
$PROJECTNAME
  1

  9
$CAMERADISPLAY
290
0
  9
$LENSLENGTH
 40
50.0
  9
$CAMERAHEIGHT
 40
0.0
  9
$STEPSPERSEC
 40
24.0
  9
$STEPSIZE
 40
100.0
  9
$3DDWFPREC
 40
2.0
  9
$PSOLWIDTH
 40
0.005
  9
$PSOLHEIGHT
 40
0.08
  9
$LOFTANG1
 40
1.570796326795
  9
$LOFTANG2
 40
1.570796326795
  9
$LOFTMAG1
 40
0.0
  9
$LOFTMAG2
 40
0.0
  9
$LOFTPARAM
 70
7
  9
$LOFTNORMALS
280
1
  9
$LATITUDE
 40
37.795
  9
$LONGITUDE
 40
-122.394
  9
$NORTHDIRECTION
 40
0.0
  9
$TIMEZONE
 70
-8000
  9
$LIGHTGLYPHDISPLAY
280
1
  9
$TILEMODELIGHTSYNCH
280
1
  9
$CMATERIAL
347
20
  9
$SOLIDHIST
280
0
  9
$SHOWHIST
280
1
  9
$DWFFRAME
280
2
  9
$DGNFRAME
280
2
  9
$REALWORLDSCALE
290
1
  9
$INTERFERECOLOR
 62
256
  9
$CSHADOW
280
0
  9
$SHADOWPLANELOCATION
 40
0.0
  0
ENDSEC
  0
SECTION
  2
CLASSES
  0
CLASS
  1
ACDBDICTIONARYWDFLT
  2
AcDbDictionaryWithDefault
  3
ObjectDBX Classes
 90
0
 91
0
280
0
281
0
  0
CLASS
  1
SUN
  2
AcDbSun
  3
SCENEOE
 90
1153
 91
0
280
0
281
0
  0
CLASS
  1
VISUALSTYLE
  2
AcDbVisualStyle
  3
ObjectDBX Classes
 90
4095
 91
0
280
0
281
0
  0
CLASS
  1
MATERIAL
  2
AcDbMaterial
  3
ObjectDBX Classes
 90
1153
 91
0
280
0
281
0
  0
CLASS
  1
SCALE
  2
AcDbScale
  3
ObjectDBX Classes
 90
1153
 91
0
280
0
281
0
  0
CLASS
  1
TABLESTYLE
  2
AcDbTableStyle
  3
ObjectDBX Classes
 90
4095
 91
0
280
0
281
0
  0
CLASS
  1
MLEADERSTYLE
  2
AcDbMLeaderStyle
  3
ACDB_MLEADERSTYLE_CLASS
 90
4095
 91
0
280
0
281
0
  0
CLASS
  1
DICTIONARYVAR
  2
AcDbDictionaryVar
  3
ObjectDBX Classes
 90
0
 91
0
280
0
281
0
  0
CLASS
  1
CELLSTYLEMAP
  2
AcDbCellStyleMap
  3
ObjectDBX Classes
 90
1152
 91
0
280
0
281
0
  0
CLASS
  1
MENTALRAYRENDERSETTINGS
  2
AcDbMentalRayRenderSettings
  3
SCENEOE
 90
1024
 91
0
280
0
281
0
  0
CLASS
  1
ACDBDETAILVIEWSTYLE
  2
AcDbDetailViewStyle
  3
ObjectDBX Classes
 90
1025
 91
0
280
0
281
0
  0
CLASS
  1
ACDBSECTIONVIEWSTYLE
  2
AcDbSectionViewStyle
  3
ObjectDBX Classes
 90
1025
 91
0
280
0
281
0
  0
CLASS
  1
RASTERVARIABLES
  2
AcDbRasterVariables
  3
ISM
 90
0
 91
0
280
0
281
0
  0
CLASS
  1
ACDBPLACEHOLDER
  2
AcDbPlaceHolder
  3
ObjectDBX Classes
 90
0
 91
0
280
0
281
0
  0
CLASS
  1
LAYOUT
  2
AcDbLayout
  3
ObjectDBX Classes
 90
0
 91
0
280
0
281
0
  0
ENDSEC
  0
SECTION
  2
TABLES
  0
TABLE
  2
VPORT
  5
8
330
0
100
AcDbSymbolTable
 70
1
  0
VPORT
  5
23
330
8
100
AcDbSymbolTableRecord
100
AcDbViewportTableRecord
  2
*Active
 70
0
 10
0.0
 20
0.0
 11
1.0
 21
1.0
 12
70.0
 22
50.0
 13
0.0
 23
0.0
 14
0.5
 24
0.5
 15
0.5
 25
0.5
 16
0.0
 26
0.0
 36
1.0
 17
0.0
 27
0.0
 37
0.0
 40
1.0
 41
1.34
 42
50.0
 43
0.0
 44
0.0
 50
0.0
 51
0.0
 71
0
 72
1000
 73
1
 74
3
 75
0
 76
0
 77
0
 78
0
281
0
 65
0
146
0.0
  0
ENDTAB
  0
TABLE
  2
LTYPE
  5
2
330
0
100
AcDbSymbolTable
 70
21
  0
LTYPE
  5
24
330
2
100
AcDbSymbolTableRecord
100
AcDbLinetypeTableRecord
  2
ByBlock
 70
0
  3

 72
65
 73
0
 40
0.0
  0
LTYPE
  5
25
330
2
100
AcDbSymbolTableRecord
100
AcDbLinetypeTableRecord
  2
ByLayer
 70
0
  3

 72
65
 73
0
 40
0.0
  0
LTYPE
  5
26
330
2
100
AcDbSymbolTableRecord
100
AcDbLinetypeTableRecord
  2
Continuous
 70
0
  3

 72
65
 73
0
 40
0.0
  0
LTYPE
  5
2D
330
2
100
AcDbSymbolTableRecord
100
AcDbLinetypeTableRecord
  2
CENTER
 70
0
  3
Center ____ _ ____ _ ____ _ ____ _ ____ _ ____
 72
65
 73
4
 40
2.0
 49
1.25
 74
0
 49
-0.25
 74
0
 49
0.25
 74
0
 49
-0.25
 74
0
  0
LTYPE
  5
2E
330
2
100
AcDbSymbolTableRecord
100
AcDbLinetypeTableRecord
  2
CENTERX2
 70
0
  3
Center (2x) ________  __  ________  __  ________
 72
65
 73
4
 40
3.5
 49
2.5
 74
0
 49
-0.25
 74
0
 49
0.5
 74
0
 49
-0.25
 74
0
  0
LTYPE
  5
2F
330
2
100
AcDbSymbolTableRecord
100
AcDbLinetypeTableRecord
  2
CENTER2
 70
0
  3
Center (.5x) ____ _ ____ _ ____ _ ____ _ ____
 72
65
 73
4
 40
1.0
 49
0.625
 74
0
 49
-0.125
 74
0
 49
0.125
 74
0
 49
-0.125
 74
0
  0
LTYPE
  5
30
330
2
100
AcDbSymbolTableRecord
100
AcDbLinetypeTableRecord
  2
DASHED
 70
0
  3
Dashed __ __ __ __ __ __ __ __ __ __ __ __ __ _
 72
65
 73
2
 40
0.6
 49
0.5
 74
0
 49
-0.1
 74
0
  0
LTYPE
  5
31
330
2
100
AcDbSymbolTableRecord
100
AcDbLinetypeTableRecord
  2
DASHEDX2
 70
0
  3
Dashed (2x) ____  ____  ____  ____  ____  ____
 72
65
 73
2
 40
1.2
 49
1.0
 74
0
 49
-0.2
 74
0
  0
LTYPE
  5
32
330
2
100
AcDbSymbolTableRecord
100
AcDbLinetypeTableRecord
  2
DASHED2
 70
0
  3
Dashed (.5x) _ _ _ _ _ _ _ _ _ _ _ _ _ _
 72
65
 73
2
 40
0.3
 49
0.25
 74
0
 49
-0.05
 74
0
  0
LTYPE
  5
33
330
2
100
AcDbSymbolTableRecord
100
AcDbLinetypeTableRecord
  2
PHANTOM
 70
0
  3
Phantom ______  __  __  ______  __  __  ______
 72
65
 73
6
 40
2.5
 49
1.25
 74
0
 49
-0.25
 74
0
 49
0.25
 74
0
 49
-0.25
 74
0
 49
0.25
 74
0
 49
-0.25
 74
0
  0
LTYPE
  5
34
330
2
100
AcDbSymbolTableRecord
100
AcDbLinetypeTableRecord
  2
PHANTOMX2
 70
0
  3
Phantom (2x)____________    ____    ____    ____________
 72
65
 73
6
 40
4.25
 49
2.5
 74
0
 49
-0.25
 74
0
 49
0.5
 74
0
 49
-0.25
 74
0
 49
0.5
 74
0
 49
-0.25
 74
0
  0
LTYPE
  5
35
330
2
100
AcDbSymbolTableRecord
100
AcDbLinetypeTableRecord
  2
PHANTOM2
 70
0
  3
Phantom (.5x) ___ _ _ ___ _ _ ___ _ _ ___ _ _ ___
 72
65
 73
6
 40
1.25
 49
0.625
 74
0
 49
-0.125
 74
0
 49
0.125
 74
0
 49
-0.125
 74
0
 49
0.125
 74
0
 49
-0.125
 74
0
  0
LTYPE
  5
36
330
2
100
AcDbSymbolTableRecord
100
AcDbLinetypeTableRecord
  2
DASHDOT
 70
0
  3
Dash dot __ . __ . __ . __ . __ . __ . __ . __
 72
65
 73
4
 40
1.4
 49
1.0
 74
0
 49
-0.2
 74
0
 49
0.0
 74
0
 49
-0.2
 74
0
  0
LTYPE
  5
37
330
2
100
AcDbSymbolTableRecord
100
AcDbLinetypeTableRecord
  2
DASHDOTX2
 70
0
  3
Dash dot (2x) ____  .  ____  .  ____  .  ____
 72
65
 73
4
 40
2.4
 49
2.0
 74
0
 49
-0.2
 74
0
 49
0.0
 74
0
 49
-0.2
 74
0
  0
LTYPE
  5
38
330
2
100
AcDbSymbolTableRecord
100
AcDbLinetypeTableRecord
  2
DASHDOT2
 70
0
  3
Dash dot (.5x) _ . _ . _ . _ . _ . _ . _ . _
 72
65
 73
4
 40
0.7
 49
0.5
 74
0
 49
-0.1
 74
0
 49
0.0
 74
0
 49
-0.1
 74
0
  0
LTYPE
  5
39
330
2
100
AcDbSymbolTableRecord
100
AcDbLinetypeTableRecord
  2
DOT
 70
0
  3
Dot .  .  .  .  .  .  .  .  .  .  .  .  .  .  .  .
 72
65
 73
2
 40
0.2
 49
0.0
 74
0
 49
-0.2
 74
0
  0
LTYPE
  5
3A
330
2
100
AcDbSymbolTableRecord
100
AcDbLinetypeTableRecord
  2
DOTX2
 70
0
  3
Dot (2x) .    .    .    .    .    .    .    . 
 72
65
 73
2
 40
0.4
 49
0.0
 74
0
 49
-0.4
 74
0
  0
LTYPE
  5
3B
330
2
100
AcDbSymbolTableRecord
100
AcDbLinetypeTableRecord
  2
DOT2
 70
0
  3
Dot (.5) . . . . . . . . . . . . . . . . . . . 
 72
65
 73
2
 40
0.1
 49
0.0
 74
0
 49
-0.1
 74
0
  0
LTYPE
  5
3C
330
2
100
AcDbSymbolTableRecord
100
AcDbLinetypeTableRecord
  2
DIVIDE
 70
0
  3
Divide __ . . __ . . __ . . __ . . __ . . __
 72
65
 73
6
 40
1.6
 49
1.0
 74
0
 49
-0.2
 74
0
 49
0.0
 74
0
 49
-0.2
 74
0
 49
0.0
 74
0
 49
-0.2
 74
0
  0
LTYPE
  5
3D
330
2
100
AcDbSymbolTableRecord
100
AcDbLinetypeTableRecord
  2
DIVIDEX2
 70
0
  3
Divide (2x) ____  . .  ____  . .  ____  . .  ____
 72
65
 73
6
 40
2.6
 49
2.0
 74
0
 49
-0.2
 74
0
 49
0.0
 74
0
 49
-0.2
 74
0
 49
0.0
 74
0
 49
-0.2
 74
0
  0
LTYPE
  5
3E
330
2
100
AcDbSymbolTableRecord
100
AcDbLinetypeTableRecord
  2
DIVIDE2
 70
0
  3
Divide(.5x) _ . _ . _ . _ . _ . _ . _ . _
 72
65
 73
6
 40
0.8
 49
0.5
 74
0
 49
-0.1
 74
0
 49
0.0
 74
0
 49
-0.1
 74
0
 49
0.0
 74
0
 49
-0.1
 74
0
  0
ENDTAB
  0
TABLE
  2
LAYER
  5
1
330
0
100
AcDbSymbolTable
 70
2
  0
LAYER
  5
28
330
1
100
AcDbSymbolTableRecord
100
AcDbLayerTableRecord
  2
Defpoints
 70
0
 62
7
  6
Continuous
290
0
370
-3
390
13
347
21
  0
LAYER
  5
89
330
1
100
AcDbSymbolTableRecord
100
AcDbLayerTableRecord
  2
0
 70
0
 62
7
  6
Continuous
370
-3
390
13
347
21
  0
ENDTAB
  0
TABLE
  2
STYLE
  5
5
330
0
100
AcDbSymbolTable
 70
26
  0
STYLE
  5
29
330
5
100
AcDbSymbolTableRecord
100
AcDbTextStyleTableRecord
  2
Standard
 70
0
 40
0.0
 41
1.0
 50
0.0
 71
0
 42
2.5
  3
txt
  4

  0
STYLE
  5
3F
330
5
100
AcDbSymbolTableRecord
100
AcDbTextStyleTableRecord
  2
OpenSans-Light
 70
0
 40
0.0
 41
1.0
 50
0.0
 71
0
 42
2.5
  3
OpenSans-Light.ttf
  4

  0
STYLE
  5
40
330
5
100
AcDbSymbolTableRecord
100
AcDbTextStyleTableRecord
  2
OpenSans-Light-Italic
 70
0
 40
0.0
 41
1.0
 50
0.0
 71
0
 42
2.5
  3
OpenSans-LightItalic.ttf
  4

  0
STYLE
  5
41
330
5
100
AcDbSymbolTableRecord
100
AcDbTextStyleTableRecord
  2
OpenSans
 70
0
 40
0.0
 41
1.0
 50
0.0
 71
0
 42
2.5
  3
OpenSans-Regular.ttf
  4

  0
STYLE
  5
42
330
5
100
AcDbSymbolTableRecord
100
AcDbTextStyleTableRecord
  2
OpenSans-Italic
 70
0
 40
0.0
 41
1.0
 50
0.0
 71
0
 42
2.5
  3
OpenSans-Italic.ttf
  4

  0
STYLE
  5
43
330
5
100
AcDbSymbolTableRecord
100
AcDbTextStyleTableRecord
  2
OpenSans-SemiBold
 70
0
 40
0.0
 41
1.0
 50
0.0
 71
0
 42
2.5
  3
OpenSans-SemiBold.ttf
  4

  0
STYLE
  5
44
330
5
100
AcDbSymbolTableRecord
100
AcDbTextStyleTableRecord
  2
OpenSans-SemiBoldItalic
 70
0
 40
0.0
 41
1.0
 50
0.0
 71
0
 42
2.5
  3
OpenSans-SemiBoldItalic.ttf
  4

  0
STYLE
  5
45
330
5
100
AcDbSymbolTableRecord
100
AcDbTextStyleTableRecord
  2
OpenSans-Bold
 70
0
 40
0.0
 41
1.0
 50
0.0
 71
0
 42
2.5
  3
OpenSans-Bold.ttf
  4

  0
STYLE
  5
46
330
5
100
AcDbSymbolTableRecord
100
AcDbTextStyleTableRecord
  2
OpenSans-BoldItalic
 70
0
 40
0.0
 41
1.0
 50
0.0
 71
0
 42
2.5
  3
OpenSans-BoldItalic.ttf
  4

  0
STYLE
  5
47
330
5
100
AcDbSymbolTableRecord
100
AcDbTextStyleTableRecord
  2
OpenSans-ExtraBold
 70
0
 40
0.0
 41
1.0
 50
0.0
 71
0
 42
2.5
  3
OpenSans-ExtraBold.ttf
  4

  0
STYLE
  5
48
330
5
100
AcDbSymbolTableRecord
100
AcDbTextStyleTableRecord
  2
OpenSans-ExtraBoldItalic
 70
0
 40
0.0
 41
1.0
 50
0.0
 71
0
 42
2.5
  3
OpenSans-ExtraBoldItalic.ttf
  4

  0
STYLE
  5
49
330
5
100
AcDbSymbolTableRecord
100
AcDbTextStyleTableRecord
  2
OpenSansCondensed-Bold
 70
0
 40
0.0
 41
1.0
 50
0.0
 71
0
 42
2.5
  3
OpenSansCondensed-Bold.ttf
  4

  0
STYLE
  5
4A
330
5
100
AcDbSymbolTableRecord
100
AcDbTextStyleTableRecord
  2
OpenSansCondensed-Light
 70
0
 40
0.0
 41
1.0
 50
0.0
 71
0
 42
2.5
  3
OpenSansCondensed-Light.ttf
  4

  0
STYLE
  5
4B
330
5
100
AcDbSymbolTableRecord
100
AcDbTextStyleTableRecord
  2
OpenSansCondensed-Italic
 70
0
 40
0.0
 41
1.0
 50
0.0
 71
0
 42
2.5
  3
OpenSansCondensed-LightItalic.ttf
  4

  0
STYLE
  5
4C
330
5
100
AcDbSymbolTableRecord
100
AcDbTextStyleTableRecord
  2
LiberationSans
 70
0
 40
0.0
 41
1.0
 50
0.0
 71
0
 42
2.5
  3
LiberationSans-Regular.ttf
  4

  0
STYLE
  5
4D
330
5
100
AcDbSymbolTableRecord
100
AcDbTextStyleTableRecord
  2
LiberationSans-Bold
 70
0
 40
0.0
 41
1.0
 50
0.0
 71
0
 42
2.5
  3
LiberationSans-Bold.ttf
  4

  0
STYLE
  5
4E
330
5
100
AcDbSymbolTableRecord
100
AcDbTextStyleTableRecord
  2
LiberationSans-BoldItalic
 70
0
 40
0.0
 41
1.0
 50
0.0
 71
0
 42
2.5
  3
LiberationSans-BoldItalic.ttf
  4

  0
STYLE
  5
4F
330
5
100
AcDbSymbolTableRecord
100
AcDbTextStyleTableRecord
  2
LiberationSans-Italic
 70
0
 40
0.0
 41
1.0
 50
0.0
 71
0
 42
2.5
  3
LiberationSans-Italic.ttf
  4

  0
STYLE
  5
50
330
5
100
AcDbSymbolTableRecord
100
AcDbTextStyleTableRecord
  2
LiberationSerif
 70
0
 40
0.0
 41
1.0
 50
0.0
 71
0
 42
2.5
  3
LiberationSerif-Regular.ttf
  4

  0
STYLE
  5
51
330
5
100
AcDbSymbolTableRecord
100
AcDbTextStyleTableRecord
  2
LiberationSerif-Bold
 70
0
 40
0.0
 41
1.0
 50
0.0
 71
0
 42
2.5
  3
LiberationSerif-Bold.ttf
  4

  0
STYLE
  5
52
330
5
100
AcDbSymbolTableRecord
100
AcDbTextStyleTableRecord
  2
LiberationSerif-BoldItalic
 70
0
 40
0.0
 41
1.0
 50
0.0
 71
0
 42
2.5
  3
LiberationSerif-BoldItalic.ttf
  4

  0
STYLE
  5
53
330
5
100
AcDbSymbolTableRecord
100
AcDbTextStyleTableRecord
  2
LiberationSerif-Italic
 70
0
 40
0.0
 41
1.0
 50
0.0
 71
0
 42
2.5
  3
LiberationSerif-Italic.ttf
  4

  0
STYLE
  5
54
330
5
100
AcDbSymbolTableRecord
100
AcDbTextStyleTableRecord
  2
LiberationMono
 70
0
 40
0.0
 41
1.0
 50
0.0
 71
0
 42
2.5
  3
LiberationMono-Regular.ttf
  4

  0
STYLE
  5
55
330
5
100
AcDbSymbolTableRecord
100
AcDbTextStyleTableRecord
  2
LiberationMono-Bold
 70
0
 40
0.0
 41
1.0
 50
0.0
 71
0
 42
2.5
  3
LiberationMono-Bold.ttf
  4

  0
STYLE
  5
56
330
5
100
AcDbSymbolTableRecord
100
AcDbTextStyleTableRecord
  2
LiberationMono-BoldItalic
 70
0
 40
0.0
 41
1.0
 50
0.0
 71
0
 42
2.5
  3
LiberationMono-BoldItalic.ttf
  4

  0
STYLE
  5
57
330
5
100
AcDbSymbolTableRecord
100
AcDbTextStyleTableRecord
  2
LiberationMono-Italic
 70
0
 40
0.0
 41
1.0
 50
0.0
 71
0
 42
2.5
  3
LiberationMono-Italic.ttf
  4

  0
ENDTAB
  0
TABLE
  2
VIEW
  5
7
330
0
100
AcDbSymbolTable
 70
0
  0
ENDTAB
  0
TABLE
  2
UCS
  5
6
330
0
100
AcDbSymbolTable
 70
0
  0
ENDTAB
  0
TABLE
  2
APPID
  5
3
330
0
100
AcDbSymbolTable
 70
1
  0
APPID
  5
2A
330
3
100
AcDbSymbolTableRecord
100
AcDbRegAppTableRecord
  2
ACAD
 70
0
  0
ENDTAB
  0
TABLE
  2
DIMSTYLE
  5
4
330
0
100
AcDbSymbolTable
 70
11
100
AcDbDimStyleTable
  0
DIMSTYLE
105
2B
330
4
100
AcDbSymbolTableRecord
100
AcDbDimStyleTableRecord
  2
Standard
 70
0
 40
1.0
 41
2.5
 42
0.625
 43
3.75
 44
1.25
 45
0.0
 46
0.0
 47
0.0
 48
0.0
 49
2.5
140
2.5
141
2.5
142
0.0
143
0.03937007874
144
1.0
145
0.0
146
1.0
147
0.625
148
0.0
 69
0
 70
0
 71
0
 72
0
 73
0
 74
0
 75
0
 76
0
 77
1
 78
8
 79
0
170
0
171
3
172
1
173
0
174
0
175
0
176
0
177
0
178
0
179
0
271
0
272
2
273
2
274
3
275
0
276
0
277
2
278
44
279
0
280
0
281
0
282
0
283
0
284
8
285
0
286
0
288
0
289
3
290
0
371
-2
372
-2
  0
DIMSTYLE
105
71
330
4
100
AcDbSymbolTableRecord
100
AcDbDimStyleTableRecord
  2
EZDXF
 70
0
 40
1.0
 41
0.175
 42
0.125
 43
3.75
 44
0.375
 45
0.0
 46
0.0
 47
0.0
 48
0.0
 49
2.5
140
0.25
141
2.5
142
0.0
143
0.03937007874
144
100.0
145
0.0
146
1.0
147
0.1
148
0.0
 69
0
 70
0
 71
0
 72
0
 73
0
 74
0
 75
0
 76
0
 77
1
 78
8
 79
0
170
0
171
3
172
1
173
0
174
0
175
0
176
0
177
0
178
0
179
0
271
2
272
2
273
2
274
3
275
0
276
0
277
2
278
46
279
2
280
0
281
0
282
0
283
0
284
8
285
0
286
0
288
1
289
3
290
0
342
72
371
-2
372
-2
  0
DIMSTYLE
105
7A
330
4
100
AcDbSymbolTableRecord
100
AcDbDimStyleTableRecord
  2
EZ_M_100_H25_CM
 70
0
 40
1.0
 41
0.25
 42
0.125
 43
3.75
 44
0.375
 45
0.0
 46
0.0
 47
0.0
 48
0.0
 49
2.5
140
0.25
141
2.5
142
0.125
143
0.03937007874
144
100.0
145
0.0
146
1.0
147
0.1
148
0.0
 69
0
 70
0
 71
0
 72
0
 73
0
 74
0
 75
0
 76
0
 77
1
 78
8
 79
0
170
0
171
3
172
1
173
0
174
0
175
0
176
0
177
0
178
0
179
0
271
2
272
2
273
2
274
3
275
0
276
0
277
2
278
46
279
2
280
0
281
0
282
0
283
0
284
8
285
0
286
0
288
1
289
3
290
0
371
-2
372
-2
  0
DIMSTYLE
105
7B
330
4
100
AcDbSymbolTableRecord
100
AcDbDimStyleTableRecord
  2
EZ_M_50_H25_CM
 70
0
 40
1.0
 41
0.125
 42
0.0625
 43
3.75
 44
0.1875
 45
0.0
 46
0.0
 47
0.0
 48
0.0
 49
2.5
140
0.125
141
2.5
142
0.0625
143
0.03937007874
144
100.0
145
0.0
146
1.0
147
0.05
148
0.0
 69
0
 70
0
 71
0
 72
0
 73
0
 74
0
 75
0
 76
0
 77
1
 78
8
 79
0
170
0
171
3
172
1
173
0
174
0
175
0
176
0
177
0
178
0
179
0
271
2
272
2
273
2
274
3
275
0
276
0
277
2
278
46
279
2
280
0
281
0
282
0
283
0
284
8
285
0
286
0
288
1
289
3
290
0
371
-2
372
-2
  0
DIMSTYLE
105
7C
330
4
100
AcDbSymbolTableRecord
100
AcDbDimStyleTableRecord
  2
EZ_M_25_H25_CM
 70
0
 40
1.0
 41
0.0625
 42
0.03125
 43
3.75
 44
0.09375
 45
0.0
 46
0.0
 47
0.0
 48
0.0
 49
2.5
140
0.0625
141
2.5
142
0.03125
143
0.03937007874
144
100.0
145
0.0
146
1.0
147
0.025
148
0.0
 69
0
 70
0
 71
0
 72
0
 73
0
 74
0
 75
0
 76
0
 77
1
 78
8
 79
0
170
0
171
3
172
1
173
0
174
0
175
0
176
0
177
0
178
0
179
0
271
2
272
2
273
2
274
3
275
0
276
0
277
2
278
46
279
2
280
0
281
0
282
0
283
0
284
8
285
0
286
0
288
1
289
3
290
0
371
-2
372
-2
  0
DIMSTYLE
105
7D
330
4
100
AcDbSymbolTableRecord
100
AcDbDimStyleTableRecord
  2
EZ_M_20_H25_CM
 70
0
 40
1.0
 41
0.05
 42
0.025
 43
3.75
 44
0.07500000000000001
 45
0.0
 46
0.0
 47
0.0
 48
0.0
 49
2.5
140
0.05
141
2.5
142
0.025
143
0.03937007874
144
100.0
145
0.0
146
1.0
147
0.020000000000000004
148
0.0
 69
0
 70
0
 71
0
 72
0
 73
0
 74
0
 75
0
 76
0
 77
1
 78
8
 79
0
170
0
171
3
172
1
173
0
174
0
175
0
176
0
177
0
178
0
179
0
271
2
272
2
273
2
274
3
275
0
276
0
277
2
278
46
279
2
280
0
281
0
282
0
283
0
284
8
285
0
286
0
288
1
289
3
290
0
371
-2
372
-2
  0
DIMSTYLE
105
7E
330
4
100
AcDbSymbolTableRecord
100
AcDbDimStyleTableRecord
  2
EZ_M_10_H25_CM
 70
0
 40
1.0
 41
0.025
 42
0.0125
 43
3.75
 44
0.037500000000000006
 45
0.0
 46
0.0
 47
0.0
 48
0.0
 49
2.5
140
0.025
141
2.5
142
0.0125
143
0.03937007874
144
100.0
145
0.0
146
1.0
147
0.010000000000000002
148
0.0
 69
0
 70
0
 71
0
 72
0
 73
0
 74
0
 75
0
 76
0
 77
1
 78
8
 79
0
170
0
171
3
172
1
173
0
174
0
175
0
176
0
177
0
178
0
179
0
271
2
272
2
273
2
274
3
275
0
276
0
277
2
278
46
279
2
280
0
281
0
282
0
283
0
284
8
285
0
286
0
288
1
289
3
290
0
371
-2
372
-2
  0
DIMSTYLE
105
7F
330
4
100
AcDbSymbolTableRecord
100
AcDbDimStyleTableRecord
  2
EZ_M_5_H25_CM
 70
0
 40
1.0
 41
0.0125
 42
0.00625
 43
3.75
 44
0.018750000000000003
 45
0.0
 46
0.0
 47
0.0
 48
0.0
 49
2.5
140
0.0125
141
2.5
142
0.00625
143
0.03937007874
144
100.0
145
0.0
146
1.0
147
0.005000000000000001
148
0.0
 69
0
 70
0
 71
0
 72
0
 73
0
 74
0
 75
0
 76
0
 77
1
 78
8
 79
0
170
0
171
3
172
1
173
0
174
0
175
0
176
0
177
0
178
0
179
0
271
2
272
2
273
2
274
3
275
0
276
0
277
2
278
46
279
2
280
0
281
0
282
0
283
0
284
8
285
0
286
0
288
1
289
3
290
0
371
-2
372
-2
  0
DIMSTYLE
105
80
330
4
100
AcDbSymbolTableRecord
100
AcDbDimStyleTableRecord
  2
EZ_M_1_H25_CM
 70
0
 40
1.0
 41
0.0025
 42
0.00125
 43
3.75
 44
0.00375
 45
0.0
 46
0.0
 47
0.0
 48
0.0
 49
2.5
140
0.0025
141
2.5
142
0.00125
143
0.03937007874
144
100.0
145
0.0
146
1.0
147
0.001
148
0.0
 69
0
 70
0
 71
0
 72
0
 73
0
 74
0
 75
0
 76
0
 77
1
 78
8
 79
0
170
0
171
3
172
1
173
0
174
0
175
0
176
0
177
0
178
0
179
0
271
2
272
2
273
2
274
3
275
0
276
0
277
2
278
46
279
2
280
0
281
0
282
0
283
0
284
8
285
0
286
0
288
1
289
3
290
0
371
-2
372
-2
  0
DIMSTYLE
105
81
330
4
100
AcDbSymbolTableRecord
100
AcDbDimStyleTableRecord
  2
EZ_RADIUS
 70
0
 40
1.0
 41
0.25
 42
0.125
 43
3.75
 44
0.375
 45
0.0
 46
0.0
 47
0.0
 48
0.0
 49
2.5
140
0.25
141
0.0
142
0.0
143
0.03937007874
144
100.0
145
0.0
146
1.0
147
0.1
148
0.0
 69
0
 70
0
 71
0
 72
0
 73
0
 74
0
 75
0
 76
0
 77
1
 78
8
 79
0
170
0
171
3
172
0
173
0
174
0
175
0
176
0
177
0
178
0
179
0
271
2
272
2
273
2
274
3
275
0
276
0
277
2
278
46
279
1
280
0
281
0
282
0
283
0
284
8
285
0
286
0
288
1
289
3
290
0
342
82
371
-2
372
-2
  0
DIMSTYLE
105
86
330
4
100
AcDbSymbolTableRecord
100
AcDbDimStyleTableRecord
  2
EZ_RADIUS_INSIDE
 70
0
 40
1.0
 41
0.25
 42
0.125
 43
3.75
 44
0.375
 45
0.0
 46
0.0
 47
0.0
 48
0.0
 49
2.5
140
0.25
141
0.0
142
0.0
143
0.03937007874
144
100.0
145
0.0
146
1.0
147
0.1
148
0.0
 69
0
 70
0
 71
0
 72
0
 73
0
 74
0
 75
0
 76
0
 77
0
 78
8
 79
0
170
0
171
3
172
0
173
0
174
1
175
0
176
0
177
0
178
0
179
0
271
2
272
2
273
2
274
3
275
0
276
0
277
2
278
46
279
0
280
0
281
0
282
0
283
0
284
8
285
0
286
0
288
1
289
0
290
0
342
82
371
-2
372
-2
  0
ENDTAB
  0
TABLE
  2
BLOCK_RECORD
  5
9
330
0
100
AcDbSymbolTable
 70
17
  0
BLOCK_RECORD
  5
17
330
9
100
AcDbSymbolTableRecord
100
AcDbBlockTableRecord
  2
*Model_Space
340
1A
 70
0
280
1
281
1
  0
BLOCK_RECORD
  5
1B
330
9
100
AcDbSymbolTableRecord
100
AcDbBlockTableRecord
  2
*Paper_Space
340
1E
 70
0
280
1
281
1
  0
BLOCK_RECORD
  5
72
330
9
100
AcDbSymbolTableRecord
100
AcDbBlockTableRecord
  2
_ARCHTICK
340
0
 70
0
280
1
281
1
  0
BLOCK_RECORD
  5
76
330
9
100
AcDbSymbolTableRecord
100
AcDbBlockTableRecord
  2
_CLOSEDFILLED
340
0
 70
0
280
1
281
1
  0
BLOCK_RECORD
  5
82
330
9
100
AcDbSymbolTableRecord
100
AcDbBlockTableRecord
  2
_CLOSEDBLANK
340
0
 70
0
280
1
281
1
  0
BLOCK_RECORD
  5
102
330
9
100
AcDbSymbolTableRecord
100
AcDbBlockTableRecord
  2
*D1
340
0
 70
0
280
1
281
1
  0
BLOCK_RECORD
  5
107
330
9
100
AcDbSymbolTableRecord
100
AcDbBlockTableRecord
  2
_OBLIQUE
340
0
 70
0
280
1
281
1
  0
BLOCK_RECORD
  5
143
330
9
100
AcDbSymbolTableRecord
100
AcDbBlockTableRecord
  2
*D2
340
0
 70
0
280
1
281
1
  0
BLOCK_RECORD
  5
152
330
9
100
AcDbSymbolTableRecord
100
AcDbBlockTableRecord
  2
*D3
340
0
 70
0
280
1
281
1
  0
BLOCK_RECORD
  5
161
330
9
100
AcDbSymbolTableRecord
100
AcDbBlockTableRecord
  2
*D4
340
0
 70
0
280
1
281
1
  0
BLOCK_RECORD
  5
170
330
9
100
AcDbSymbolTableRecord
100
AcDbBlockTableRecord
  2
*D5
340
0
 70
0
280
1
281
1
  0
BLOCK_RECORD
  5
17F
330
9
100
AcDbSymbolTableRecord
100
AcDbBlockTableRecord
  2
*D6
340
0
 70
0
280
1
281
1
  0
BLOCK_RECORD
  5
1B4
330
9
100
AcDbSymbolTableRecord
100
AcDbBlockTableRecord
  2
*D7
340
0
 70
0
280
1
281
1
  0
BLOCK_RECORD
  5
1CD
330
9
100
AcDbSymbolTableRecord
100
AcDbBlockTableRecord
  2
*D8
340
0
 70
0
280
1
281
1
  0
BLOCK_RECORD
  5
1DC
330
9
100
AcDbSymbolTableRecord
100
AcDbBlockTableRecord
  2
*D9
340
0
 70
0
280
1
281
1
  0
BLOCK_RECORD
  5
1EB
330
9
100
AcDbSymbolTableRecord
100
AcDbBlockTableRecord
  2
*D10
340
0
 70
0
280
1
281
1
  0
BLOCK_RECORD
  5
1FA
330
9
100
AcDbSymbolTableRecord
100
AcDbBlockTableRecord
  2
*D11
340
0
 70
0
280
1
281
1
  0
ENDTAB
  0
ENDSEC
  0
SECTION
  2
BLOCKS
  0
BLOCK
  5
18
330
17
100
AcDbEntity
  8
0
100
AcDbBlockBegin
  2
*Model_Space
 70
0
 10
0.0
 20
0.0
 30
0.0
  3
*Model_Space
  1

  0
ENDBLK
  5
19
330
17
100
AcDbEntity
  8
0
100
AcDbBlockEnd
  0
BLOCK
  5
1C
330
1B
100
AcDbEntity
  8
0
100
AcDbBlockBegin
  2
*Paper_Space
 70
0
 10
0.0
 20
0.0
 30
0.0
  3
*Paper_Space
  1

  0
ENDBLK
  5
1D
330
1B
100
AcDbEntity
  8
0
100
AcDbBlockEnd
  0
BLOCK
  5
73
330
72
100
AcDbEntity
  8
0
100
AcDbBlockBegin
  2
_ARCHTICK
 70
0
 10
0.0
 20
0.0
 30
0.0
  3
_ARCHTICK
  1

  0
LWPOLYLINE
  5
75
330
72
100
AcDbEntity
  8
0
  6
BYBLOCK
 62
0
100
AcDbPolyline
 90
2
 70
0
 43
0.15
 10
-0.5
 20
-0.5000000000000001
 10
0.5000000000000001
 20
0.5
  0
ENDBLK
  5
74
330
72
100
AcDbEntity
  8
0
100
AcDbBlockEnd
  0
BLOCK
  5
77
330
76
100
AcDbEntity
  8
0
100
AcDbBlockBegin
  2
_CLOSEDFILLED
 70
0
 10
0.0
 20
0.0
 30
0.0
  3
_CLOSEDFILLED
  1

  0
SOLID
  5
79
330
76
100
AcDbEntity
  8
0
  6
BYBLOCK
 62
0
100
AcDbTrace
 10
-1.0
 20
0.1643989837240255
 30
0.0
 11
0.0
 21
0.0
 31
0.0
 12
-1.0
 22
-0.1643989837240255
 32
0.0
 13
-1.0
 23
-0.1643989837240255
 33
0.0
  0
ENDBLK
  5
78
330
76
100
AcDbEntity
  8
0
100
AcDbBlockEnd
  0
BLOCK
  5
83
330
82
100
AcDbEntity
  8
0
100
AcDbBlockBegin
  2
_CLOSEDBLANK
 70
0
 10
0.0
 20
0.0
 30
0.0
  3
_CLOSEDBLANK
  1

  0
LWPOLYLINE
  5
85
330
82
100
AcDbEntity
  8
0
  6
BYBLOCK
 62
0
100
AcDbPolyline
 90
3
 70
1
 10
-1.0
 20
0.1643989837240255
 10
0.0
 20
0.0
 10
-1.0
 20
-0.1643989837240255
  0
ENDBLK
  5
84
330
82
100
AcDbEntity
  8
0
100
AcDbBlockEnd
  0
BLOCK
  5
103
330
102
100
AcDbEntity
  8
0
100
AcDbBlockBegin
  2
*D1
 70
1
 10
0.0
 20
0.0
 30
0.0
  3
*D1
  1

  0
LINE
  5
105
330
102
100
AcDbEntity
  8
0
 62
0
370
-2
100
AcDbLine
 10
150.0
 20
1902.48951315925
 30
0.0
 11
150.0
 21
1877.633142966942
 31
0.0
  0
LINE
  5
106
330
102
100
AcDbEntity
  8
0
 62
0
370
-2
100
AcDbLine
 10
322.5
 20
1964.98951315925
 30
0.0
 11
322.5
 21
1877.633142966942
 31
0.0
  0
INSERT
  5
10B
330
102
100
AcDbEntity
  8
0
 62
0
100
AcDbBlockReference
  2
_OBLIQUE
 10
150.0
 20
1878.883142966942
 30
0.0
 41
2e-05
 42
2e-05
  0
INSERT
  5
10D
330
102
100
AcDbEntity
  8
0
 62
0
100
AcDbBlockReference
  2
_OBLIQUE
 10
322.5
 20
1878.883142966942
 30
0.0
 41
2e-05
 42
2e-05
  0
LINE
  5
10F
330
102
100
AcDbEntity
  8
0
 62
0
370
-2
100
AcDbLine
 10
150.0
 20
1878.883142966942
 30
0.0
 11
322.5
 21
1878.883142966942
 31
0.0
  0
MTEXT
  5
110
330
102
100
AcDbEntity
  8
0
 62
0
100
AcDbMText
 10
236.25
 20
1887.508142966942
 30
0.0
 40
16.0
 71
5
  1
138
  7
STANDARD
  0
POINT
  5
111
330
102
100
AcDbEntity
  8
DEFPOINTS
100
AcDbPoint
 10
150.0
 20
1878.883142966942
 30
0.0
  0
POINT
  5
112
330
102
100
AcDbEntity
  8
DEFPOINTS
100
AcDbPoint
 10
150.0
 20
1903.11451315925
 30
0.0
  0
POINT
  5
113
330
102
100
AcDbEntity
  8
DEFPOINTS
100
AcDbPoint
 10
322.5
 20
1965.61451315925
 30
0.0
  0
ENDBLK
  5
104
330
102
100
AcDbEntity
  8
0
100
AcDbBlockEnd
  0
BLOCK
  5
108
330
107
100
AcDbEntity
  8
0
100
AcDbBlockBegin
  2
_OBLIQUE
 70
0
 10
0.0
 20
0.0
 30
0.0
  3
_OBLIQUE
  1

  0
LINE
  5
10A
330
107
100
AcDbEntity
  8
0
  6
BYBLOCK
 62
0
100
AcDbLine
 10
-0.5
 20
-0.5000000000000001
 30
0.0
 11
0.5000000000000001
 21
0.5
 31
0.0
  0
ENDBLK
  5
109
330
107
100
AcDbEntity
  8
0
100
AcDbBlockEnd
  0
BLOCK
  5
144
330
143
100
AcDbEntity
  8
0
100
AcDbBlockBegin
  2
*D2
 70
1
 10
0.0
 20
0.0
 30
0.0
  3
*D2
  1

  0
LINE
  5
146
330
143
100
AcDbEntity
  8
0
 62
0
370
-2
100
AcDbLine
 10
687.5
 20
1987.48951315925
 30
0.0
 11
687.5
 21
1737.43105001132
 31
0.0
  0
LINE
  5
147
330
143
100
AcDbEntity
  8
0
 62
0
370
-2
100
AcDbLine
 10
322.5
 20
1964.98951315925
 30
0.0
 11
322.5
 21
1737.43105001132
 31
0.0
  0
INSERT
  5
148
330
143
100
AcDbEntity
  8
0
 62
0
100
AcDbBlockReference
  2
_OBLIQUE
 10
687.5
 20
1738.68105001132
 30
0.0
 41
2e-05
 42
2e-05
  0
INSERT
  5
14A
330
143
100
AcDbEntity
  8
0
 62
0
100
AcDbBlockReference
  2
_OBLIQUE
 10
322.5
 20
1738.68105001132
 30
0.0
 41
2e-05
 42
2e-05
  0
LINE
  5
14C
330
143
100
AcDbEntity
  8
0
 62
0
370
-2
100
AcDbLine
 10
687.5
 20
1738.68105001132
 30
0.0
 11
322.5
 21
1738.68105001132
 31
0.0
  0
MTEXT
  5
14D
330
143
100
AcDbEntity
  8
0
 62
0
100
AcDbMText
 10
505.0
 20
1730.05605001132
 30
0.0
 40
16.0
 71
5
  1
953
  7
STANDARD
  0
POINT
  5
14E
330
143
100
AcDbEntity
  8
DEFPOINTS
100
AcDbPoint
 10
687.5
 20
1738.68105001132
 30
0.0
  0
POINT
  5
14F
330
143
100
AcDbEntity
  8
DEFPOINTS
100
AcDbPoint
 10
687.5
 20
1988.11451315925
 30
0.0
  0
POINT
  5
150
330
143
100
AcDbEntity
  8
DEFPOINTS
100
AcDbPoint
 10
322.5
 20
1965.61451315925
 30
0.0
  0
ENDBLK
  5
145
330
143
100
AcDbEntity
  8
0
100
AcDbBlockEnd
  0
BLOCK
  5
153
330
152
100
AcDbEntity
  8
0
100
AcDbBlockBegin
  2
*D3
 70
1
 10
0.0
 20
0.0
 30
0.0
  3
*D3
  1

  0
LINE
  5
155
330
152
100
AcDbEntity
  8
0
 62
0
370
-2
100
AcDbLine
 10
687.5
 20
1987.48951315925
 30
0.0
 11
687.5
 21
1813.174008351558
 31
0.0
  0
LINE
  5
156
330
152
100
AcDbEntity
  8
0
 62
0
370
-2
100
AcDbLine
 10
860.0
 20
1902.48951315925
 30
0.0
 11
860.0
 21
1813.174008351558
 31
0.0
  0
INSERT
  5
157
330
152
100
AcDbEntity
  8
0
 62
0
100
AcDbBlockReference
  2
_OBLIQUE
 10
687.5
 20
1814.424008351558
 30
0.0
 41
2e-05
 42
2e-05
  0
INSERT
  5
159
330
152
100
AcDbEntity
  8
0
 62
0
100
AcDbBlockReference
  2
_OBLIQUE
 10
860.0
 20
1814.424008351558
 30
0.0
 41
2e-05
 42
2e-05
  0
LINE
  5
15B
330
152
100
AcDbEntity
  8
0
 62
0
370
-2
100
AcDbLine
 10
687.5
 20
1814.424008351558
 30
0.0
 11
860.0
 21
1814.424008351558
 31
0.0
  0
MTEXT
  5
15C
330
152
100
AcDbEntity
  8
0
 62
0
100
AcDbMText
 10
773.75
 20
1823.049008351558
 30
0.0
 40
16.0
 71
5
  1
138
  7
STANDARD
  0
POINT
  5
15D
330
152
100
AcDbEntity
  8
DEFPOINTS
100
AcDbPoint
 10
687.5
 20
1814.424008351558
 30
0.0
  0
POINT
  5
15E
330
152
100
AcDbEntity
  8
DEFPOINTS
100
AcDbPoint
 10
687.5
 20
1988.11451315925
 30
0.0
  0
POINT
  5
15F
330
152
100
AcDbEntity
  8
DEFPOINTS
100
AcDbPoint
 10
860.0
 20
1903.11451315925
 30
0.0
  0
ENDBLK
  5
154
330
152
100
AcDbEntity
  8
0
100
AcDbBlockEnd
  0
BLOCK
  5
162
330
161
100
AcDbEntity
  8
0
100
AcDbBlockBegin
  2
*D4
 70
1
 10
0.0
 20
0.0
 30
0.0
  3
*D4
  1

  0
LINE
  5
164
330
161
100
AcDbEntity
  8
0
 62
0
370
-2
100
AcDbLine
 10
630.0
 20
2059.9895131592502
 30
0.0
 11
630.0
 21
2103.8566560733343
 31
0.0
  0
LINE
  5
165
330
161
100
AcDbEntity
  8
0
 62
0
370
-2
100
AcDbLine
 10
356.25
 20
2127.4895131592502
 30
0.0
 11
356.25
 21
2101.3566560733343
 31
0.0
  0
INSERT
  5
166
330
161
100
AcDbEntity
  8
0
 62
0
100
AcDbBlockReference
  2
_OBLIQUE
 10
630.0
 20
2102.6066560733343
 30
0.0
 41
2e-05
 42
2e-05
  0
INSERT
  5
168
330
161
100
AcDbEntity
  8
0
 62
0
100
AcDbBlockReference
  2
_OBLIQUE
 10
356.25
 20
2102.6066560733343
 30
0.0
 41
2e-05
 42
2e-05
  0
LINE
  5
16A
330
161
100
AcDbEntity
  8
0
 62
0
370
-2
100
AcDbLine
 10
630.0
 20
2102.6066560733343
 30
0.0
 11
356.25
 21
2102.6066560733343
 31
0.0
  0
MTEXT
  5
16B
330
161
100
AcDbEntity
  8
0
 62
0
100
AcDbMText
 10
493.125
 20
2093.9816560733343
 30
0.0
 40
16.0
 71
5
  1
880
  7
STANDARD
  0
POINT
  5
16C
330
161
100
AcDbEntity
  8
DEFPOINTS
100
AcDbPoint
 10
630.0
 20
2102.6066560733343
 30
0.0
  0
POINT
  5
16D
330
161
100
AcDbEntity
  8
DEFPOINTS
100
AcDbPoint
 10
630.0
 20
2059.3645131592502
 30
0.0
  0
POINT
  5
16E
330
161
100
AcDbEntity
  8
DEFPOINTS
100
AcDbPoint
 10
356.25
 20
2128.1145131592502
 30
0.0
  0
ENDBLK
  5
163
330
161
100
AcDbEntity
  8
0
100
AcDbBlockEnd
  0
BLOCK
  5
171
330
170
100
AcDbEntity
  8
0
100
AcDbBlockBegin
  2
*D5
 70
1
 10
0.0
 20
0.0
 30
0.0
  3
*D5
  1

  0
LINE
  5
173
330
170
100
AcDbEntity
  8
0
 62
0
370
-2
100
AcDbLine
 10
692.5
 20
2128.7395131592502
 30
0.0
 11
692.5
 21
2165.929931417897
 31
0.0
  0
LINE
  5
174
330
170
100
AcDbEntity
  8
0
 62
0
370
-2
100
AcDbLine
 10
293.75
 20
2117.4895131592502
 30
0.0
 11
293.75
 21
2165.929931417897
 31
0.0
  0
INSERT
  5
175
330
170
100
AcDbEntity
  8
0
 62
0
100
AcDbBlockReference
  2
_OBLIQUE
 10
692.5
 20
2164.679931417897
 30
0.0
 41
2e-05
 42
2e-05
  0
INSERT
  5
177
330
170
100
AcDbEntity
  8
0
 62
0
100
AcDbBlockReference
  2
_OBLIQUE
 10
293.75
 20
2164.679931417897
 30
0.0
 41
2e-05
 42
2e-05
  0
LINE
  5
179
330
170
100
AcDbEntity
  8
0
 62
0
370
-2
100
AcDbLine
 10
692.5
 20
2164.679931417897
 30
0.0
 11
293.75
 21
2164.679931417897
 31
0.0
  0
MTEXT
  5
17A
330
170
100
AcDbEntity
  8
0
 62
0
100
AcDbMText
 10
493.125
 20
2156.054931417897
 30
0.0
 40
16.0
 71
5
  1
980
  7
STANDARD
  0
POINT
  5
17B
330
170
100
AcDbEntity
  8
DEFPOINTS
100
AcDbPoint
 10
692.5
 20
2164.679931417897
 30
0.0
  0
POINT
  5
17C
330
170
100
AcDbEntity
  8
DEFPOINTS
100
AcDbPoint
 10
692.5
 20
2128.1145131592502
 30
0.0
  0
POINT
  5
17D
330
170
100
AcDbEntity
  8
DEFPOINTS
100
AcDbPoint
 10
293.75
 20
2116.8645131592502
 30
0.0
  0
ENDBLK
  5
172
330
170
100
AcDbEntity
  8
0
100
AcDbBlockEnd
  0
BLOCK
  5
180
330
17F
100
AcDbEntity
  8
0
100
AcDbBlockBegin
  2
*D6
 70
1
 10
0.0
 20
0.0
 30
0.0
  3
*D6
  1

  0
LINE
  5
182
330
17F
100
AcDbEntity
  8
0
 62
0
370
-2
100
AcDbLine
 10
860.0
 20
1977.48951315925
 30
0.0
 11
860.0
 21
1760.30276920764
 31
0.0
  0
LINE
  5
183
330
17F
100
AcDbEntity
  8
0
 62
0
370
-2
100
AcDbLine
 10
150.0
 20
1902.48951315925
 30
0.0
 11
150.0
 21
1760.30276920764
 31
0.0
  0
INSERT
  5
184
330
17F
100
AcDbEntity
  8
0
 62
0
100
AcDbBlockReference
  2
_OBLIQUE
 10
860.0
 20
1761.55276920764
 30
0.0
 41
2e-05
 42
2e-05
  0
INSERT
  5
186
330
17F
100
AcDbEntity
  8
0
 62
0
100
AcDbBlockReference
  2
_OBLIQUE
 10
150.0
 20
1761.55276920764
 30
0.0
 41
2e-05
 42
2e-05
  0
LINE
  5
188
330
17F
100
AcDbEntity
  8
0
 62
0
370
-2
100
AcDbLine
 10
860.0
 20
1761.55276920764
 30
0.0
 11
150.0
 21
1761.55276920764
 31
0.0
  0
MTEXT
  5
189
330
17F
100
AcDbEntity
  8
0
 62
0
100
AcDbMText
 10
505.0
 20
1752.92776920764
 30
0.0
 40
16.0
 71
5
  1
1229
  7
STANDARD
  0
POINT
  5
18A
330
17F
100
AcDbEntity
  8
DEFPOINTS
100
AcDbPoint
 10
860.0
 20
1761.55276920764
 30
0.0
  0
POINT
  5
18B
330
17F
100
AcDbEntity
  8
DEFPOINTS
100
AcDbPoint
 10
860.0
 20
1978.11451315925
 30
0.0
  0
POINT
  5
18C
330
17F
100
AcDbEntity
  8
DEFPOINTS
100
AcDbPoint
 10
150.0
 20
1903.11451315925
 30
0.0
  0
ENDBLK
  5
181
330
17F
100
AcDbEntity
  8
0
100
AcDbBlockEnd
  0
BLOCK
  5
1B5
330
1B4
100
AcDbEntity
  8
0
100
AcDbBlockBegin
  2
*D7
 70
1
 10
0.0
 20
0.0
 30
0.0
  3
*D7
  1

  0
LINE
  5
1B7
330
1B4
100
AcDbEntity
  8
0
 62
0
370
-2
100
AcDbLine
 10
1597.375
 20
2027.3430039884001
 30
0.0
 11
1778.495192307692
 21
2027.3430039884001
 31
0.0
  0
LINE
  5
1B8
330
1B4
100
AcDbEntity
  8
0
 62
0
370
-2
100
AcDbLine
 10
1753.625
 20
2199.8430039884
 30
0.0
 11
1778.495192307692
 21
2199.8430039884
 31
0.0
  0
INSERT
  5
1B9
330
1B4
100
AcDbEntity
  8
0
 62
0
100
AcDbBlockReference
  2
_OBLIQUE
 10
1777.245192307692
 20
2027.3430039884001
 30
0.0
 41
2e-05
 42
2e-05
 50
90.0
  0
INSERT
  5
1BB
330
1B4
100
AcDbEntity
  8
0
 62
0
100
AcDbBlockReference
  2
_OBLIQUE
 10
1777.245192307692
 20
2199.8430039884
 30
0.0
 41
2e-05
 42
2e-05
 50
90.0
  0
LINE
  5
1BD
330
1B4
100
AcDbEntity
  8
0
 62
0
370
-2
100
AcDbLine
 10
1777.245192307692
 20
2027.3430039884001
 30
0.0
 11
1777.245192307692
 21
2199.8430039884
 31
0.0
  0
MTEXT
  5
1BE
330
1B4
100
AcDbEntity
  8
0
 62
0
100
AcDbMText
 10
1768.620192307692
 20
2113.5930039884
 30
0.0
 40
16.0
 71
5
  1
138
  7
STANDARD
 11
6.123233995736766e-17
 21
1.0
 31
0.0
  0
POINT
  5
1BF
330
1B4
100
AcDbEntity
  8
DEFPOINTS
100
AcDbPoint
 10
1777.245192307692
 20
2027.3430039884001
 30
0.0
  0
POINT
  5
1C0
330
1B4
100
AcDbEntity
  8
DEFPOINTS
100
AcDbPoint
 10
1596.75
 20
2027.3430039884001
 30
0.0
  0
POINT
  5
1C1
330
1B4
100
AcDbEntity
  8
DEFPOINTS
100
AcDbPoint
 10
1753.0
 20
2199.8430039884
 30
0.0
  0
ENDBLK
  5
1B6
330
1B4
100
AcDbEntity
  8
0
100
AcDbBlockEnd
  0
BLOCK
  5
1CE
330
1CD
100
AcDbEntity
  8
0
100
AcDbBlockBegin
  2
*D8
 70
1
 10
0.0
 20
0.0
 30
0.0
  3
*D8
  1

  0
LINE
  5
1D0
330
1CD
100
AcDbEntity
  8
0
 62
0
370
-2
100
AcDbLine
 10
1678.625
 20
2199.8430039884
 30
0.0
 11
1786.1638920271223
 21
2199.8430039884
 31
0.0
  0
LINE
  5
1D1
330
1CD
100
AcDbEntity
  8
0
 62
0
370
-2
100
AcDbLine
 10
1797.3749999999372
 20
1794.8401472576004
 30
0.0
 11
1783.6638920271223
 21
1794.8401472576004
 31
0.0
  0
INSERT
  5
1D2
330
1CD
100
AcDbEntity
  8
0
 62
0
100
AcDbBlockReference
  2
_OBLIQUE
 10
1784.9138920271223
 20
2199.8430039884
 30
0.0
 41
2e-05
 42
2e-05
 50
90.0
  0
INSERT
  5
1D4
330
1CD
100
AcDbEntity
  8
0
 62
0
100
AcDbBlockReference
  2
_OBLIQUE
 10
1784.9138920271223
 20
1794.8401472576004
 30
0.0
 41
2e-05
 42
2e-05
 50
90.0
  0
LINE
  5
1D6
330
1CD
100
AcDbEntity
  8
0
 62
0
370
-2
100
AcDbLine
 10
1784.9138920271223
 20
2199.8430039884
 30
0.0
 11
1784.9138920271223
 21
1794.8401472576004
 31
0.0
  0
MTEXT
  5
1D7
330
1CD
100
AcDbEntity
  8
0
 62
0
100
AcDbMText
 10
1793.5388920271223
 20
1997.3415756230002
 30
0.0
 40
16.0
 71
5
  1
2183
  7
STANDARD
 11
6.123233995736766e-17
 21
1.0
 31
0.0
  0
POINT
  5
1D8
330
1CD
100
AcDbEntity
  8
DEFPOINTS
100
AcDbPoint
 10
1784.9138920271223
 20
2199.8430039884
 30
0.0
  0
POINT
  5
1D9
330
1CD
100
AcDbEntity
  8
DEFPOINTS
100
AcDbPoint
 10
1678.0
 20
2199.8430039884
 30
0.0
  0
POINT
  5
1DA
330
1CD
100
AcDbEntity
  8
DEFPOINTS
100
AcDbPoint
 10
1797.9999999999372
 20
1794.8401472576004
 30
0.0
  0
ENDBLK
  5
1CF
330
1CD
100
AcDbEntity
  8
0
100
AcDbBlockEnd
  0
BLOCK
  5
1DD
330
1DC
100
AcDbEntity
  8
0
100
AcDbBlockBegin
  2
*D9
 70
1
 10
0.0
 20
0.0
 30
0.0
  3
*D9
  1

  0
LINE
  5
1DF
330
1DC
100
AcDbEntity
  8
0
 62
0
370
-2
100
AcDbLine
 10
1527.375
 20
2071.0930039884
 30
0.0
 11
1488.6630859374372
 21
2071.0930039884
 31
0.0
  0
LINE
  5
1E0
330
1DC
100
AcDbEntity
  8
0
 62
0
370
-2
100
AcDbLine
 10
1797.3749999999372
 20
1794.8401472576004
 30
0.0
 11
1488.6630859374372
 21
1794.8401472576004
 31
0.0
  0
INSERT
  5
1E1
330
1DC
100
AcDbEntity
  8
0
 62
0
100
AcDbBlockReference
  2
_OBLIQUE
 10
1489.9130859374372
 20
2071.0930039884
 30
0.0
 41
2e-05
 42
2e-05
 50
90.0
  0
INSERT
  5
1E3
330
1DC
100
AcDbEntity
  8
0
 62
0
100
AcDbBlockReference
  2
_OBLIQUE
 10
1489.9130859374372
 20
1794.8401472576004
 30
0.0
 41
2e-05
 42
2e-05
 50
90.0
  0
LINE
  5
1E5
330
1DC
100
AcDbEntity
  8
0
 62
0
370
-2
100
AcDbLine
 10
1489.9130859374372
 20
2071.0930039884
 30
0.0
 11
1489.9130859374372
 21
1794.8401472576004
 31
0.0
  0
MTEXT
  5
1E6
330
1DC
100
AcDbEntity
  8
0
 62
0
100
AcDbMText
 10
1498.5380859374372
 20
1932.9665756230002
 30
0.0
 40
16.0
 71
5
  1
2080
  7
STANDARD
 11
6.123233995736766e-17
 21
1.0
 31
0.0
  0
POINT
  5
1E7
330
1DC
100
AcDbEntity
  8
DEFPOINTS
100
AcDbPoint
 10
1489.9130859374372
 20
2071.0930039884
 30
0.0
  0
POINT
  5
1E8
330
1DC
100
AcDbEntity
  8
DEFPOINTS
100
AcDbPoint
 10
1528.0
 20
2071.0930039884
 30
0.0
  0
POINT
  5
1E9
330
1DC
100
AcDbEntity
  8
DEFPOINTS
100
AcDbPoint
 10
1797.9999999999372
 20
1794.8401472576004
 30
0.0
  0
ENDBLK
  5
1DE
330
1DC
100
AcDbEntity
  8
0
100
AcDbBlockEnd
  0
BLOCK
  5
1EC
330
1EB
100
AcDbEntity
  8
0
100
AcDbBlockBegin
  2
*D10
 70
1
 10
0.0
 20
0.0
 30
0.0
  3
*D10
  1

  0
LINE
  5
1EE
330
1EB
100
AcDbEntity
  8
0
 62
0
370
-2
100
AcDbLine
 10
1596.125
 20
2008.5930039884001
 30
0.0
 11
1571.6757812499372
 21
2008.5930039884001
 31
0.0
  0
LINE
  5
1EF
330
1EB
100
AcDbEntity
  8
0
 62
0
370
-2
100
AcDbLine
 10
1797.3749999999372
 20
1794.8401472576004
 30
0.0
 11
1571.6757812499372
 21
1794.8401472576004
 31
0.0
  0
INSERT
  5
1F0
330
1EB
100
AcDbEntity
  8
0
 62
0
100
AcDbBlockReference
  2
_OBLIQUE
 10
1572.9257812499372
 20
2008.5930039884001
 30
0.0
 41
2e-05
 42
2e-05
 50
90.0
  0
INSERT
  5
1F2
330
1EB
100
AcDbEntity
  8
0
 62
0
100
AcDbBlockReference
  2
_OBLIQUE
 10
1572.9257812499372
 20
1794.8401472576004
 30
0.0
 41
2e-05
 42
2e-05
 50
90.0
  0
LINE
  5
1F4
330
1EB
100
AcDbEntity
  8
0
 62
0
370
-2
100
AcDbLine
 10
1572.9257812499372
 20
2008.5930039884001
 30
0.0
 11
1572.9257812499372
 21
1794.8401472576004
 31
0.0
  0
MTEXT
  5
1F5
330
1EB
100
AcDbEntity
  8
0
 62
0
100
AcDbMText
 10
1581.5507812499372
 20
1901.7165756230002
 30
0.0
 40
16.0
 71
5
  1
2030
  7
STANDARD
 11
6.123233995736766e-17
 21
1.0
 31
0.0
  0
POINT
  5
1F6
330
1EB
100
AcDbEntity
  8
DEFPOINTS
100
AcDbPoint
 10
1572.9257812499372
 20
2008.5930039884001
 30
0.0
  0
POINT
  5
1F7
330
1EB
100
AcDbEntity
  8
DEFPOINTS
100
AcDbPoint
 10
1596.75
 20
2008.5930039884001
 30
0.0
  0
POINT
  5
1F8
330
1EB
100
AcDbEntity
  8
DEFPOINTS
100
AcDbPoint
 10
1797.9999999999372
 20
1794.8401472576004
 30
0.0
  0
ENDBLK
  5
1ED
330
1EB
100
AcDbEntity
  8
0
100
AcDbBlockEnd
  0
BLOCK
  5
1FB
330
1FA
100
AcDbEntity
  8
0
100
AcDbBlockBegin
  2
*D11
 70
1
 10
0.0
 20
0.0
 30
0.0
  3
*D11
  1

  0
LINE
  5
1FD
330
1FA
100
AcDbEntity
  8
0
 62
0
370
-2
100
AcDbLine
 10
1708.625
 20
2027.3430039884001
 30
0.0
 11
1647.2470703124372
 21
2027.3430039884001
 31
0.0
  0
LINE
  5
1FE
330
1FA
100
AcDbEntity
  8
0
 62
0
370
-2
100
AcDbLine
 10
1797.3749999999372
 20
1794.8401472576004
 30
0.0
 11
1647.2470703124372
 21
1794.8401472576004
 31
0.0
  0
INSERT
  5
1FF
330
1FA
100
AcDbEntity
  8
0
 62
0
100
AcDbBlockReference
  2
_OBLIQUE
 10
1648.4970703124372
 20
2027.3430039884001
 30
0.0
 41
2e-05
 42
2e-05
 50
90.0
  0
INSERT
  5
201
330
1FA
100
AcDbEntity
  8
0
 62
0
100
AcDbBlockReference
  2
_OBLIQUE
 10
1648.4970703124372
 20
1794.8401472576004
 30
0.0
 41
2e-05
 42
2e-05
 50
90.0
  0
LINE
  5
203
330
1FA
100
AcDbEntity
  8
0
 62
0
370
-2
100
AcDbLine
 10
1648.4970703124372
 20
2027.3430039884001
 30
0.0
 11
1648.4970703124372
 21
1794.8401472576004
 31
0.0
  0
MTEXT
  5
204
330
1FA
100
AcDbEntity
  8
0
 62
0
100
AcDbMText
 10
1657.1220703124372
 20
1911.0915756230002
 30
0.0
 40
16.0
 71
5
  1
2045
  7
STANDARD
 11
6.123233995736766e-17
 21
1.0
 31
0.0
  0
POINT
  5
205
330
1FA
100
AcDbEntity
  8
DEFPOINTS
100
AcDbPoint
 10
1648.4970703124372
 20
2027.3430039884001
 30
0.0
  0
POINT
  5
206
330
1FA
100
AcDbEntity
  8
DEFPOINTS
100
AcDbPoint
 10
1709.25
 20
2027.3430039884001
 30
0.0
  0
POINT
  5
207
330
1FA
100
AcDbEntity
  8
DEFPOINTS
100
AcDbPoint
 10
1797.9999999999372
 20
1794.8401472576004
 30
0.0
  0
ENDBLK
  5
1FC
330
1FA
100
AcDbEntity
  8
0
100
AcDbBlockEnd
  0
ENDSEC
  0
SECTION
  2
ENTITIES
  0
LINE
  5
8A
330
17
100
AcDbEntity
  8
0
 62
7
100
AcDbLine
 10
0.69297335575084
 20
2349.8430039884
 30
0.0
 11
1953.0
 21
2349.8430039884
 31
0.0
  0
LINE
  5
8B
330
17
100
AcDbEntity
  8
0
 62
7
100
AcDbLine
 10
0.69297335575084
 20
2418.5427272819
 30
0.0
 11
1953.0
 21
2418.5427272819
 31
0.0
  0
LINE
  5
8C
330
17
100
AcDbEntity
  8
0
 62
7
100
AcDbLine
 10
1281.3138517774
 20
2591.4495413101
 30
0.0
 11
1723.0564856538
 21
2591.4495413101
 31
0.0
  0
LINE
  5
8D
330
17
100
AcDbEntity
  8
0
 62
7
100
AcDbLine
 10
192.04520323119
 20
2418.5427272819
 30
0.0
 11
192.04520323119
 21
2349.8430039884
 31
0.0
  0
LINE
  5
8E
330
17
100
AcDbEntity
  8
0
 62
7
100
AcDbLine
 10
710.29745834112
 20
2418.5427272819
 30
0.0
 11
710.29745834112
 21
2349.8430039884
 31
0.0
  0
LINE
  5
8F
330
17
100
AcDbEntity
  8
0
 62
7
100
AcDbLine
 10
892.87548675588
 20
2418.5427272819
 30
0.0
 11
892.87548675588
 21
2349.8430039884
 31
0.0
  0
LINE
  5
90
330
17
100
AcDbEntity
  8
0
 62
7
100
AcDbLine
 10
72.574682578144
 20
2648.4862416281
 30
0.0
 11
72.574682578144
 21
2418.5427272819
 31
0.0
  0
LINE
  5
91
330
17
100
AcDbEntity
  8
0
 62
7
100
AcDbLine
 10
1953.0
 20
2705.4495413101
 30
0.0
 11
0.69297335575084
 21
2705.4495413101
 31
0.0
  0
LINE
  5
92
330
17
100
AcDbEntity
  8
0
 62
7
100
AcDbLine
 10
0.69297335575084
 20
1681.3860223301
 30
0.0
 11
1953.0
 21
1681.3860223301
 31
0.0
  0
LINE
  5
93
330
17
100
AcDbEntity
  8
0
 62
7
100
AcDbLine
 10
0.69297335575084
 20
1626.6195328971
 30
0.0
 11
1396.6258710539
 21
1626.6195328971
 31
0.0
  0
LINE
  5
94
330
17
100
AcDbEntity
  8
0
 62
7
100
AcDbLine
 10
1396.6258710539
 20
1483.9411097404
 30
0.0
 11
1953.0
 21
1483.9411097404
 31
0.0
  0
LINE
  5
95
330
17
100
AcDbEntity
  8
0
 62
7
100
AcDbLine
 10
1396.6258710539
 20
1130.4254400799
 30
0.0
 11
1953.0
 21
1130.4254400799
 31
0.0
  0
LINE
  5
96
330
17
100
AcDbEntity
  8
0
 62
7
100
AcDbLine
 10
1396.6258710539
 20
1681.3860223301
 30
0.0
 11
1396.6258710539
 21
0.0
 31
0.0
  0
LINE
  5
97
330
17
100
AcDbEntity
  8
0
 62
7
100
AcDbLine
 10
1396.6258710539
 20
473.45560210051
 30
0.0
 11
1953.0
 21
473.45560210051
 31
0.0
  0
LINE
  5
98
330
17
100
AcDbEntity
  8
0
 62
7
100
AcDbLine
 10
1281.3138517774
 20
2418.5427272819
 30
0.0
 11
1281.3138517774
 21
2349.8430039884
 31
0.0
  0
LINE
  5
99
330
17
100
AcDbEntity
  8
0
 62
7
100
AcDbLine
 10
1281.3138517774
 20
2648.4862416281
 30
0.0
 11
1281.3138517774
 21
2418.5427254868
 31
0.0
  0
LINE
  5
9A
330
17
100
AcDbEntity
  8
0
 62
7
100
AcDbLine
 10
1390.3974222081
 20
2648.4862416281
 30
0.0
 11
1390.3974222081
 21
2418.5427254868
 31
0.0
  0
LINE
  5
9B
330
17
100
AcDbEntity
  8
0
 62
7
100
AcDbLine
 10
1281.3138517774
 20
2477.449539515
 30
0.0
 11
1723.0564856538
 21
2477.449539515
 31
0.0
  0
LINE
  5
9C
330
17
100
AcDbEntity
  8
0
 62
7
100
AcDbLine
 10
1281.3138517774
 20
2534.449539515
 30
0.0
 11
1723.0564856538
 21
2534.449539515
 31
0.0
  0
LINE
  5
9D
330
17
100
AcDbEntity
  8
0
 62
7
100
AcDbLine
 10
1723.0564856538
 20
2648.4862416281
 30
0.0
 11
1723.0564856538
 21
2418.5427272819
 31
0.0
  0
LINE
  5
9E
330
17
100
AcDbEntity
  8
0
 62
7
100
AcDbLine
 10
0.0
 20
2762.1
 30
0.0
 11
1953.0
 21
2762.1
 31
0.0
  0
LINE
  5
9F
330
17
100
AcDbEntity
  8
0
 62
7
100
AcDbLine
 10
1953.0
 20
2762.1
 30
0.0
 11
1953.0
 21
0.0
 31
0.0
  0
LINE
  5
A0
330
17
100
AcDbEntity
  8
0
 62
7
100
AcDbLine
 10
0.0
 20
0.0
 30
0.0
 11
1953.0
 21
0.0
 31
0.0
  0
LINE
  5
A1
330
17
100
AcDbEntity
  8
0
 62
7
100
AcDbLine
 10
0.0
 20
2762.1
 30
0.0
 11
0.0
 21
0.0
 31
0.0
  0
LINE
  5
A2
330
17
100
AcDbEntity
  8
0
 62
7
100
AcDbLine
 10
1723.0564856538
 20
2648.4862416281
 30
0.0
 11
0.69297335575084
 21
2648.4862416281
 31
0.0
  0
LINE
  5
A3
330
17
100
AcDbEntity
  8
0
 62
7
100
AcDbLine
 10
1396.6258710539
 20
1280.4064813108
 30
0.0
 11
0.0
 21
1280.4064813108
 31
0.0
  0
LINE
  5
A4
330
17
100
AcDbEntity
  8
0
 62
7
100
AcDbLine
 10
1723.0564856538
 20
2648.4862416281
 30
0.0
 11
1953.0
 21
2648.4862416281
 31
0.0
  0
MTEXT
  5
A5
330
17
100
AcDbEntity
  8
0
 62
7
100
AcDbMText
 10
18.323396645982
 20
2629.1628419933
 30
0.0
 40
36.0
 71
1
  1
外
  0
MTEXT
  5
A6
330
17
100
AcDbEntity
  8
0
 62
7
100
AcDbMText
 10
93.265573648745
 20
2634.6307427455
 30
0.0
 40
36.0
 71
1
  1
款式：SD-K-1910
  0
MTEXT
  5
A7
330
17
100
AcDbEntity
  8
0
 62
7
100
AcDbMText
 10
92.814386187282
 20
2554.4739601891
 30
0.0
 40
36.0
 71
1
  1
锁具：
  0
MTEXT
  5
A8
330
17
100
AcDbEntity
  8
0
 62
7
100
AcDbMText
 10
92.336227384406
 20
2479.7701663514
 30
0.0
 40
36.0
 71
1
  1
铰型：
  0
MTEXT
  5
A9
330
17
100
AcDbEntity
  8
0
 62
7
100
AcDbMText
 10
19.040017601053
 20
1674.3537869276
 30
0.0
 40
36.0
 71
1
  1
门扇：945x2023x70
  0
MTEXT
  5
AA
330
17
100
AcDbEntity
  8
0
 62
7
100
AcDbMText
 10
521.02952105415
 20
1674.460744868
 30
0.0
 40
36.0
 71
1
  1
材质：0.8/201绅士灰
  0
MTEXT
  5
AB
330
17
100
AcDbEntity
  8
0
 62
7
100
AcDbMText
 10
1408.4028314281
 20
459.09570185688
 30
0.0
 40
36.0
 71
1
  1
外开右锁 包边在外
  0
MTEXT
  5
AD
330
17
100
AcDbEntity
  8
0
 62
7
100
AcDbMText
 10
6.6958197759081
 20
2701.4369664464
 30
0.0
 40
36.0
 71
1
  1
下单日期：
  0
MTEXT
  5
AE
330
17
100
AcDbEntity
  8
0
 62
7
100
AcDbMText
 10
742.43346132055
 20
2701.4369664464
 30
0.0
 40
36.0
 71
1
  1
交货日期：订单审核后确定
  0
MTEXT
  5
AF
330
17
100
AcDbEntity
  8
0
 62
7
100
AcDbMText
 10
1291.1277967838
 20
2642.5118608942
 30
0.0
 40
36.0
 71
1
  1
胶条
  0
MTEXT
  5
B0
330
17
100
AcDbEntity
  8
0
 62
7
100
AcDbMText
 10
1289.8871486044
 20
2586.2725928993
 30
0.0
 40
36.0
 71
1
  1
安装
  0
MTEXT
  5
B1
330
17
100
AcDbEntity
  8
0
 62
7
100
AcDbMText
 10
1289.4359611429
 20
2529.4547751972
 30
0.0
 40
36.0
 71
1
  1
商标
  0
MTEXT
  5
B2
330
17
100
AcDbEntity
  8
0
 62
7
100
AcDbMText
 10
1288.95780234
 20
2470.0794909837
 30
0.0
 40
36.0
 71
1
  1
猫眼
  0
MTEXT
  5
B3
330
17
100
AcDbEntity
  8
0
 62
7
100
AcDbMText
 10
1403.0075021835
 20
2641.9661455435
 30
0.0
 40
36.0
 71
1
  1
贴
  0
MTEXT
  5
B4
330
17
100
AcDbEntity
  8
0
 62
7
100
AcDbMText
 10
1401.7668540041
 20
2585.7268775486
 30
0.0
 40
36.0
 71
1
  1
拉片
  0
MTEXT
  5
B5
330
17
100
AcDbEntity
  8
0
 62
7
100
AcDbMText
 10
1401.3156665426
 20
2528.9090598465
 30
0.0
 40
36.0
 71
1
  1

  0
MTEXT
  5
B6
330
17
100
AcDbEntity
  8
0
 62
7
100
AcDbMText
 10
1400.8375077397
 20
2469.533775633
 30
0.0
 40
36.0
 71
1
  1
无
  0
MTEXT
  5
B7
330
17
100
AcDbEntity
  8
0
 62
7
100
AcDbMText
 10
205.73886486742
 20
2404.6095902964
 30
0.0
 40
36.0
 71
1
  1
980x2080x115
  0
MTEXT
  5
B8
330
17
100
AcDbEntity
  8
0
 62
7
100
AcDbMText
 10
901.40617319129
 20
2404.8636722197
 30
0.0
 40
36.0
 71
1
  1
880x2030
  0
MTEXT
  5
B9
330
17
100
AcDbEntity
  8
0
 62
7
100
AcDbMText
 10
5.9289638110904
 20
2404.0308198159
 30
0.0
 40
36.0
 71
1
  1
包框尺寸
  0
MTEXT
  5
BA
330
17
100
AcDbEntity
  8
0
 62
7
100
AcDbMText
 10
713.51917017714
 20
2404.9681286184
 30
0.0
 40
36.0
 71
1
  1
见光尺寸
  0
MTEXT
  5
BB
330
17
100
AcDbEntity
  8
0
 62
7
100
AcDbMText
 10
1287.9753096232
 20
2407.4212886061
 30
0.0
 40
36.0
 71
1
  1
外开右锁 包边在外
  0
MTEXT
  5
BC
330
17
100
AcDbEntity
  8
0
 62
7
100
AcDbMText
 10
1039.1594361602
 20
1676.2129714177
 30
0.0
 40
36.0
 71
1
  1
商标：
  0
MTEXT
  5
BD
330
17
100
AcDbEntity
  8
0
 62
7
100
AcDbMText
 10
18.57644781935
 20
2544.182196707
 30
0.0
 40
36.0
 71
1
  1
门
  0
MTEXT
  5
BE
330
17
100
AcDbEntity
  8
0
 62
7
100
AcDbMText
 10
1551.3358791688
 20
1677.6423200199
 30
0.0
 40
36.0
 71
1
  1
左框124+115
  0
MTEXT
  5
BF
330
17
100
AcDbEntity
  8
0
 62
7
100
AcDbMText
 10
1551.0253874869
 20
1618.7294718368
 30
0.0
 40
36.0
 71
1
  1
右框143+115\P
  0
MTEXT
  5
C0
330
17
100
AcDbEntity
  8
0
 62
7
100
AcDbMText
 10
1551.0253874869
 20
1555.5092341831
 30
0.0
 40
36.0
 71
1
  1
顶框103+115\P
  0
MTEXT
  5
C1
330
17
100
AcDbEntity
  8
0
 62
7
100
AcDbMText
 10
1403.6323340738
 20
1678.156901214
 30
0.0
 40
36.0
 71
1
  1
拉码：  
  0
MTEXT
  5
C2
330
17
100
AcDbEntity
  8
0
 62
7
100
AcDbMText
 10
12.752682411765
 20
2335.8784718382
 30
0.0
 40
36.0
 71
1
  1
框料   0.8/201绅士灰
  0
MTEXT
  5
C3
330
17
100
AcDbEntity
  8
0
 62
7
100
AcDbMText
 10
829.51480612896
 20
1772.2035653106
 30
0.0
 40
36.0
 71
1
  1
锁中：1012
  0
MTEXT
  5
C4
330
17
100
AcDbEntity
  8
0
 62
7
100
AcDbMText
 10
642.84976887656
 20
2757.0730195293
 30
0.0
 40
36.0
 71
1
  1
订单号：
  0
MTEXT
  5
C5
330
17
100
AcDbEntity
  8
0
 62
7
100
AcDbMText
 10
1508.1736762105
 20
2757.1709174231
 30
0.0
 40
36.0
 71
1
  1
编号：
  0
MTEXT
  5
C9
330
17
100
AcDbEntity
  8
0
 62
7
100
AcDbMText
 10
1412.8976297093
 20
1467.5995354231
 30
0.0
 40
31.2
 71
1
  1
花件：160x1623=1只
  0
MTEXT
  5
CA
330
17
100
AcDbEntity
  8
0
 62
7
100
AcDbMText
 10
1412.8976297093
 20
1368.7995354231
 30
0.0
 40
31.2
 71
1
  1
玻璃：外钢化 内钢化+拉丝古铜金
  0
MTEXT
  5
CB
330
17
100
AcDbEntity
  8
0
 62
7
100
AcDbMText
 10
1411.898380007
 20
1419.2532287078
 30
0.0
 40
31.2
 71
1
  1
①花件6分边框，前玻后板
  0
MTEXT
  5
CC
330
17
100
AcDbEntity
  8
0
 62
7
100
AcDbMText
 10
1412.3435324539
 20
1308.2766116392
 30
0.0
 40
31.2
 71
1
  1
钢化：160x1623=1
  0
MTEXT
  5
CD
330
17
100
AcDbEntity
  8
0
 62
7
100
AcDbMText
 10
1411.695477832
 20
1259.7673152171
 30
0.0
 40
31.2
 71
1
  1
钢化：160x1623=1
  0
MTEXT
  5
CE
330
17
100
AcDbEntity
  8
0
 62
7
100
AcDbMText
 10
1411.9905501129
 20
1198.8577638128
 30
0.0
 40
31.2
 71
1
  1
拉丝古铜金：160x1623=1+
  0
MTEXT
  5
CF
330
17
100
AcDbEntity
  8
0
 62
7
100
AcDbMText
 10
1439.3847320116
 20
1104.3542289465
 30
0.0
 40
31.2
 71
1
  1
①花件双面立体同色压
  0
MTEXT
  5
D0
330
17
100
AcDbEntity
  8
0
 62
7
100
AcDbMText
 10
1471.172047014
 20
843.6474425339
 30
0.0
 40
31.2
 71
1
  1
开C2压条
  0
MTEXT
  5
D1
330
17
100
AcDbEntity
  8
0
 62
7
100
AcDbMText
 10
1470.902954223
 20
792.58964077516
 30
0.0
 40
31.2
 71
1
  1
83x2440=2
  0
MTEXT
  5
D2
330
17
100
AcDbEntity
  8
0
 62
7
100
AcDbMText
 10
1470.902954223
 20
737.79876814201
 30
0.0
 40
31.2
 71
1
  1
开D3压条
  0
MTEXT
  5
D3
330
17
100
AcDbEntity
  8
0
 62
7
100
AcDbMText
 10
1470.902954223
 20
687.14327426313
 30
0.0
 40
31.2
 71
1
  1
103x2440=2
  0
MTEXT
  5
D4
330
17
100
AcDbEntity
  8
0
 62
7
100
AcDbMText
 10
1426.5805402948
 20
1050.1302415415
 30
0.0
 40
31.2
 71
1
  1
条，横板背面同色D3压
  0
MTEXT
  5
D5
330
17
100
AcDbEntity
  8
0
 62
7
100
AcDbMText
 10
1426.5805402948
 20
994.99689110611
 30
0.0
 40
31.2
 71
1
  1
条。
  0
MTEXT
  5
D6
330
17
100
AcDbEntity
  8
0
 62
7
100
AcDbMText
 10
4.2942166953071
 20
2757.4607990284
 30
0.0
 40
36.0
 71
1
  1
客户：
  0
LINE
  5
D7
330
17
100
AcDbEntity
  8
0
100
AcDbLine
 10
152.5017021315
 20
1975.9976415591248
 30
0.0
 11
161.2499985123751
 21
1976.170298538875
 31
0.0
  0
LINE
  5
D8
330
17
100
AcDbEntity
  8
0
100
AcDbLine
 10
161.2499985123751
 20
1976.4952985388747
 30
0.0
 11
161.2499985123751
 21
1976.170298538875
 31
0.0
  0
MTEXT
  5
D9
330
17
100
AcDbEntity
  8
0
100
AcDbMText
 10
163.2499985123751
 20
1992.170298538875
 30
0.0
 40
16.0
 71
1
  1
0.26
  0
LINE
  5
DA
330
17
100
AcDbEntity
  8
0
100
AcDbLine
 10
161.2499985123751
 20
1976.4952985388747
 30
0.0
 11
161.2499985123751
 21
1978.1202985388747
 31
0.0
  0
MTEXT
  5
DB
330
17
100
AcDbEntity
  8
0
100
AcDbMText
 10
163.2499985123751
 20
1992.4952985388747
 30
0.0
 40
16.0
 71
1
  1
1.3
  0
LINE
  5
DC
330
17
100
AcDbEntity
  8
0
100
AcDbLine
 10
161.2499985123751
 20
1978.1202985388747
 30
0.0
 11
150.0
 21
1978.11451315925
 31
0.0
  0
MTEXT
  5
DD
330
17
100
AcDbEntity
  8
0
100
AcDbMText
 10
149.62499925618755
 20
1996.1202985388747
 30
0.0
 40
16.0
 71
1
  1
9
  0
LINE
  5
DE
330
17
100
AcDbEntity
  8
0
100
AcDbLine
 10
150.0
 20
1978.11451315925
 30
0.0
 11
150.0
 21
1903.11451315925
 31
0.0
  0
MTEXT
  5
DF
330
17
100
AcDbEntity
  8
0
100
AcDbMText
 10
152.0
 20
1948.61451315925
 30
0.0
 40
16.0
 71
1
  1
60
  0
LINE
  5
E0
330
17
100
AcDbEntity
  8
0
100
AcDbLine
 10
150.0
 20
1903.11451315925
 30
0.0
 11
205.0
 21
1903.11451315925
 31
0.0
  0
MTEXT
  5
E1
330
17
100
AcDbEntity
  8
0
100
AcDbMText
 10
165.5
 20
1921.11451315925
 30
0.0
 40
16.0
 71
1
  1
44
  0
LINE
  5
E2
330
17
100
AcDbEntity
  8
0
100
AcDbLine
 10
205.0
 20
1903.11451315925
 30
0.0
 11
205.0
 21
1915.61451315925
 31
0.0
  0
MTEXT
  5
E3
330
17
100
AcDbEntity
  8
0
100
AcDbMText
 10
207.0
 20
1913.61451315925
 30
0.0
 40
16.0
 71
1
  1
10
  0
LINE
  5
E4
330
17
100
AcDbEntity
  8
0
100
AcDbLine
 10
205.0
 20
1915.61451315925
 30
0.0
 11
247.5
 21
1915.61451315925
 31
0.0
  0
MTEXT
  5
E5
330
17
100
AcDbEntity
  8
0
100
AcDbMText
 10
214.25
 20
1933.61451315925
 30
0.0
 40
16.0
 71
1
  1
34
  0
ARC
  5
E6
330
17
100
AcDbEntity
  8
0
100
AcDbCircle
 10
247.5
 20
1934.36451315925
 30
0.0
 40
18.75
100
AcDbArc
 50
270.0
 51
0.0
  0
LINE
  5
E7
330
17
100
AcDbEntity
  8
0
100
AcDbLine
 10
266.25
 20
1934.36451315925
 30
0.0
 11
291.25
 21
1934.36451315925
 31
0.0
  0
MTEXT
  5
E8
330
17
100
AcDbEntity
  8
0
100
AcDbMText
 10
266.75
 20
1952.36451315925
 30
0.0
 40
16.0
 71
1
  1
20
  0
LINE
  5
E9
330
17
100
AcDbEntity
  8
0
100
AcDbLine
 10
291.25
 20
1934.36451315925
 30
0.0
 11
291.25
 21
1946.86451315925
 31
0.0
  0
MTEXT
  5
EA
330
17
100
AcDbEntity
  8
0
100
AcDbMText
 10
293.25
 20
1944.86451315925
 30
0.0
 40
16.0
 71
1
  1
10
  0
LINE
  5
EB
330
17
100
AcDbEntity
  8
0
100
AcDbLine
 10
291.25
 20
1946.86451315925
 30
0.0
 11
322.5
 21
1946.86451315925
 31
0.0
  0
MTEXT
  5
EC
330
17
100
AcDbEntity
  8
0
100
AcDbMText
 10
294.875
 20
1964.86451315925
 30
0.0
 40
16.0
 71
1
  1
25
  0
LINE
  5
ED
330
17
100
AcDbEntity
  8
0
100
AcDbLine
 10
322.5
 20
1946.86451315925
 30
0.0
 11
322.5
 21
1965.61451315925
 31
0.0
  0
MTEXT
  5
EE
330
17
100
AcDbEntity
  8
0
100
AcDbMText
 10
324.5
 20
1963.61451315925
 30
0.0
 40
16.0
 71
1
  1
15
  0
LINE
  5
EF
330
17
100
AcDbEntity
  8
0
100
AcDbLine
 10
322.5
 20
1965.61451315925
 30
0.0
 11
337.5
 21
1965.61451315925
 31
0.0
  0
MTEXT
  5
F0
330
17
100
AcDbEntity
  8
0
100
AcDbMText
 10
318.0
 20
1983.61451315925
 30
0.0
 40
16.0
 71
1
  1
12
  0
LINE
  5
F1
330
17
100
AcDbEntity
  8
0
100
AcDbLine
 10
337.5
 20
1965.61451315925
 30
0.0
 11
337.5
 21
2059.3645131592502
 31
0.0
  0
MTEXT
  5
F2
330
17
100
AcDbEntity
  8
0
100
AcDbMText
 10
339.5
 20
2020.4895131592502
 30
0.0
 40
16.0
 71
1
  1
75
  0
LINE
  5
F3
330
17
100
AcDbEntity
  8
0
100
AcDbLine
 10
337.5
 20
2059.3645131592502
 30
0.0
 11
356.25
 21
2059.3645131592502
 31
0.0
  0
MTEXT
  5
F4
330
17
100
AcDbEntity
  8
0
100
AcDbMText
 10
334.875
 20
2077.3645131592502
 30
0.0
 40
16.0
 71
1
  1
15
  0
LINE
  5
F5
330
17
100
AcDbEntity
  8
0
 62
1
100
AcDbLine
 10
356.25
 20
2059.3645131592502
 30
0.0
 11
356.25
 21
2128.1145131592502
 31
0.0
  0
MTEXT
  5
F6
330
17
100
AcDbEntity
  8
0
100
AcDbMText
 10
358.25
 20
2101.7395131592502
 30
0.0
 40
16.0
 71
1
  1
55
  0
LINE
  5
F7
330
17
100
AcDbEntity
  8
0
 62
1
100
AcDbLine
 10
356.25
 20
2128.1145131592502
 30
0.0
 11
293.75
 21
2128.1145131592502
 31
0.0
  0
MTEXT
  5
F8
330
17
100
AcDbEntity
  8
0
100
AcDbMText
 10
313.0
 20
2146.1145131592502
 30
0.0
 40
16.0
 71
1
  1
50
  0
LINE
  5
F9
330
17
100
AcDbEntity
  8
0
100
AcDbLine
 10
293.75
 20
2128.1145131592502
 30
0.0
 11
293.75
 21
2116.8645131592502
 31
0.0
  0
MTEXT
  5
FA
330
17
100
AcDbEntity
  8
0
100
AcDbMText
 10
279.75
 20
2130.4895131592502
 30
0.0
 40
16.0
 71
1
  1
9
  0
LINE
  5
FB
330
17
100
AcDbEntity
  8
0
100
AcDbLine
 10
293.75000327712496
 20
2116.864511612625
 30
0.0
 11
295.3750032771251
 21
2116.864511612625
 31
0.0
  0
MTEXT
  5
FC
330
17
100
AcDbEntity
  8
0
100
AcDbMText
 10
276.562503277125
 20
2114.864511612625
 30
0.0
 40
16.0
 71
1
  1
1.3
  0
LINE
  5
FD
330
17
100
AcDbEntity
  8
0
100
AcDbLine
 10
295.3750032771251
 20
2116.864511612625
 30
0.0
 11
295.3750032771251
 21
2125.614511612625
 31
0.0
  0
MTEXT
  5
FE
330
17
100
AcDbEntity
  8
0
100
AcDbMText
 10
297.3750032771251
 20
2132.864511612625
 30
0.0
 40
16.0
 71
1
  1
7
  0
MTEXT
  5
FF
330
17
100
AcDbEntity
  8
0
100
AcDbMText
 10
150.0
 20
1753.11451315925
 30
0.0
 40
16.0
 71
1
  1
626x2193=1
  0
MTEXT
  5
100
330
17
100
AcDbEntity
  8
0
100
AcDbMText
 10
150.0
 20
2158.1145131592502
 30
0.0
 40
24.0
 71
1
  1
绅士灰
  0
DIMENSION
  5
101
330
17
100
AcDbEntity
  8
0
100
AcDbDimension
280
0
  2
*D1
  3
STANDARD
 10
150.0
 20
1878.883142966942
 30
0.0
 11
236.25
 21
1887.508142966942
 31
0.0
 70
32
 71
5
  1
138
100
AcDbAlignedDimension
 13
150.0
 23
1903.11451315925
 33
0.0
 14
322.5
 24
1965.61451315925
 34
0.0
 50
0.0
100
AcDbRotatedDimension
1001
ACAD
1000
DSTYLE
1002
{
1070
142
1040
1e-05
1070
41
1040
0.0
1070
140
1040
16.0
1070
340
1005
29
1002
}
  0
LINE
  5
114
330
17
100
AcDbEntity
  8
0
100
AcDbLine
 10
857.4982978684998
 20
1975.9976415591248
 30
0.0
 11
848.750001487625
 21
1976.1702985387499
 31
0.0
  0
LINE
  5
115
330
17
100
AcDbEntity
  8
0
100
AcDbLine
 10
848.750001487625
 20
1976.4952985387501
 30
0.0
 11
848.750001487625
 21
1976.1702985387499
 31
0.0
  0
MTEXT
  5
116
330
17
100
AcDbEntity
  8
0
100
AcDbMText
 10
850.750001487625
 20
1992.1702985387499
 30
0.0
 40
16.0
 71
1
  1
0.26
  0
LINE
  5
117
330
17
100
AcDbEntity
  8
0
100
AcDbLine
 10
848.750001487625
 20
1976.4952985387501
 30
0.0
 11
848.750001487625
 21
1978.1202985387501
 31
0.0
  0
MTEXT
  5
118
330
17
100
AcDbEntity
  8
0
100
AcDbMText
 10
850.750001487625
 20
1976.1202985387501
 30
0.0
 40
16.0
 71
1
  1
1.3
  0
LINE
  5
119
330
17
100
AcDbEntity
  8
0
100
AcDbLine
 10
848.750001487625
 20
1978.1202985387501
 30
0.0
 11
860.0
 21
1978.11451315925
 31
0.0
  0
MTEXT
  5
11A
330
17
100
AcDbEntity
  8
0
100
AcDbMText
 10
848.3750007438125
 20
1976.1202985387501
 30
0.0
 40
16.0
 71
1
  1
9
  0
LINE
  5
11B
330
17
100
AcDbEntity
  8
0
100
AcDbLine
 10
860.0
 20
1978.11451315925
 30
0.0
 11
860.0
 21
1903.11451315925
 31
0.0
  0
MTEXT
  5
11C
330
17
100
AcDbEntity
  8
0
100
AcDbMText
 10
862.0
 20
1948.61451315925
 30
0.0
 40
16.0
 71
1
  1
60
  0
LINE
  5
11D
330
17
100
AcDbEntity
  8
0
100
AcDbLine
 10
860.0
 20
1903.11451315925
 30
0.0
 11
805.0
 21
1903.11451315925
 31
0.0
  0
MTEXT
  5
11E
330
17
100
AcDbEntity
  8
0
100
AcDbMText
 10
820.5
 20
1901.11451315925
 30
0.0
 40
16.0
 71
1
  1
44
  0
LINE
  5
11F
330
17
100
AcDbEntity
  8
0
100
AcDbLine
 10
805.0
 20
1903.11451315925
 30
0.0
 11
805.0
 21
1915.61451315925
 31
0.0
  0
MTEXT
  5
120
330
17
100
AcDbEntity
  8
0
100
AcDbMText
 10
807.0
 20
1919.11451315925
 30
0.0
 40
16.0
 71
1
  1
10
  0
LINE
  5
121
330
17
100
AcDbEntity
  8
0
100
AcDbLine
 10
805.0
 20
1915.61451315925
 30
0.0
 11
762.5
 21
1915.61451315925
 31
0.0
  0
MTEXT
  5
122
330
17
100
AcDbEntity
  8
0
100
AcDbMText
 10
771.75
 20
1933.61451315925
 30
0.0
 40
16.0
 71
1
  1
34
  0
ARC
  5
123
330
17
100
AcDbEntity
  8
0
100
AcDbCircle
 10
762.5
 20
1934.36451315925
 30
0.0
 40
18.75
100
AcDbArc
 50
180.0
 51
-450.0
  0
LINE
  5
124
330
17
100
AcDbEntity
  8
0
100
AcDbLine
 10
743.75
 20
1934.36451315925
 30
0.0
 11
718.75
 21
1934.36451315925
 31
0.0
  0
MTEXT
  5
125
330
17
100
AcDbEntity
  8
0
100
AcDbMText
 10
719.25
 20
1932.36451315925
 30
0.0
 40
16.0
 71
1
  1
20
  0
LINE
  5
126
330
17
100
AcDbEntity
  8
0
100
AcDbLine
 10
718.75
 20
1934.36451315925
 30
0.0
 11
718.75
 21
1968.11451315925
 31
0.0
  0
MTEXT
  5
127
330
17
100
AcDbEntity
  8
0
100
AcDbMText
 10
720.75
 20
1959.23951315925
 30
0.0
 40
16.0
 71
1
  1
27
  0
LINE
  5
128
330
17
100
AcDbEntity
  8
0
100
AcDbLine
 10
718.75
 20
1968.11451315925
 30
0.0
 11
687.5
 21
1968.11451315925
 31
0.0
  0
MTEXT
  5
129
330
17
100
AcDbEntity
  8
0
100
AcDbMText
 10
691.125
 20
1966.11451315925
 30
0.0
 40
16.0
 71
1
  1
25
  0
LINE
  5
12A
330
17
100
AcDbEntity
  8
0
100
AcDbLine
 10
687.5
 20
1968.11451315925
 30
0.0
 11
687.5
 21
1988.11451315925
 31
0.0
  0
MTEXT
  5
12B
330
17
100
AcDbEntity
  8
0
100
AcDbMText
 10
689.5
 20
1986.11451315925
 30
0.0
 40
16.0
 71
1
  1
16
  0
LINE
  5
12C
330
17
100
AcDbEntity
  8
0
100
AcDbLine
 10
687.5
 20
1988.11451315925
 30
0.0
 11
661.25
 21
1988.11451315925
 31
0.0
  0
MTEXT
  5
12D
330
17
100
AcDbEntity
  8
0
100
AcDbMText
 10
662.375
 20
1986.11451315925
 30
0.0
 40
16.0
 71
1
  1
21
  0
LINE
  5
12E
330
17
100
AcDbEntity
  8
0
100
AcDbLine
 10
661.25
 20
1988.11451315925
 30
0.0
 11
661.25
 21
1975.61451315925
 31
0.0
  0
MTEXT
  5
12F
330
17
100
AcDbEntity
  8
0
100
AcDbMText
 10
663.25
 20
1986.11451315925
 30
0.0
 40
16.0
 71
1
  1
10
  0
LINE
  5
130
330
17
100
AcDbEntity
  8
0
100
AcDbLine
 10
661.25
 20
1975.61451315925
 30
0.0
 11
648.75
 21
1975.61451315925
 31
0.0
  0
MTEXT
  5
131
330
17
100
AcDbEntity
  8
0
100
AcDbMText
 10
643.0
 20
1973.61451315925
 30
0.0
 40
16.0
 71
1
  1
10
  0
LINE
  5
132
330
17
100
AcDbEntity
  8
0
100
AcDbLine
 10
648.75
 20
1975.61451315925
 30
0.0
 11
648.75
 21
2059.3645131592502
 31
0.0
  0
MTEXT
  5
133
330
17
100
AcDbEntity
  8
0
100
AcDbMText
 10
650.75
 20
2025.4895131592502
 30
0.0
 40
16.0
 71
1
  1
67
  0
LINE
  5
134
330
17
100
AcDbEntity
  8
0
100
AcDbLine
 10
648.75
 20
2059.3645131592502
 30
0.0
 11
630.0
 21
2059.3645131592502
 31
0.0
  0
MTEXT
  5
135
330
17
100
AcDbEntity
  8
0
100
AcDbMText
 10
627.375
 20
2077.3645131592502
 30
0.0
 40
16.0
 71
1
  1
15
  0
LINE
  5
136
330
17
100
AcDbEntity
  8
0
 62
1
100
AcDbLine
 10
630.0
 20
2059.3645131592502
 30
0.0
 11
630.0
 21
2128.1145131592502
 31
0.0
  0
MTEXT
  5
137
330
17
100
AcDbEntity
  8
0
100
AcDbMText
 10
632.0
 20
2101.7395131592502
 30
0.0
 40
16.0
 71
1
  1
55
  0
LINE
  5
138
330
17
100
AcDbEntity
  8
0
 62
1
100
AcDbLine
 10
630.0
 20
2128.1145131592502
 30
0.0
 11
692.5
 21
2128.1145131592502
 31
0.0
  0
MTEXT
  5
139
330
17
100
AcDbEntity
  8
0
100
AcDbMText
 10
649.25
 20
2146.1145131592502
 30
0.0
 40
16.0
 71
1
  1
50
  0
LINE
  5
13A
330
17
100
AcDbEntity
  8
0
100
AcDbLine
 10
692.5
 20
2128.1145131592502
 30
0.0
 11
692.5
 21
2116.8645131592502
 31
0.0
  0
MTEXT
  5
13B
330
17
100
AcDbEntity
  8
0
100
AcDbMText
 10
694.5
 20
2132.8645131592502
 30
0.0
 40
16.0
 71
1
  1
9
  0
LINE
  5
13C
330
17
100
AcDbEntity
  8
0
100
AcDbLine
 10
692.4999967229999
 20
2116.8645116125003
 30
0.0
 11
690.8749967229999
 21
2116.8645116125003
 31
0.0
  0
MTEXT
  5
13D
330
17
100
AcDbEntity
  8
0
100
AcDbMText
 10
673.6874967229999
 20
2114.8645116125003
 30
0.0
 40
16.0
 71
1
  1
1.3
  0
LINE
  5
13E
330
17
100
AcDbEntity
  8
0
100
AcDbLine
 10
690.8749967229999
 20
2116.8645116125003
 30
0.0
 11
690.8749967229999
 21
2125.6145116125003
 31
0.0
  0
MTEXT
  5
13F
330
17
100
AcDbEntity
  8
0
100
AcDbMText
 10
692.8749967229999
 20
2132.8645116125003
 30
0.0
 40
16.0
 71
1
  1
7
  0
MTEXT
  5
140
330
17
100
AcDbEntity
  8
0
100
AcDbMText
 10
630.0
 20
1753.11451315925
 30
0.0
 40
16.0
 71
1
  1
664x2193=1
  0
MTEXT
  5
141
330
17
100
AcDbEntity
  8
0
100
AcDbMText
 10
810.0
 20
2158.1145131592502
 30
0.0
 40
24.0
 71
1
  1
绅士灰
  0
DIMENSION
  5
142
330
17
100
AcDbEntity
  8
0
100
AcDbDimension
280
0
  2
*D2
  3
STANDARD
 10
687.5
 20
1738.68105001132
 30
0.0
 11
505.0
 21
1730.05605001132
 31
0.0
 70
32
 71
5
  1
953
100
AcDbAlignedDimension
 13
687.5
 23
1988.11451315925
 33
0.0
 14
322.5
 24
1965.61451315925
 34
0.0
 50
0.0
100
AcDbRotatedDimension
1001
ACAD
1000
DSTYLE
1002
{
1070
142
1040
1e-05
1070
41
1040
0.0
1070
140
1040
16.0
1070
340
1005
29
1002
}
  0
DIMENSION
  5
151
330
17
100
AcDbEntity
  8
0
100
AcDbDimension
280
0
  2
*D3
  3
STANDARD
 10
687.5
 20
1814.424008351558
 30
0.0
 11
773.75
 21
1823.049008351558
 31
0.0
 70
32
 71
5
  1
138
100
AcDbAlignedDimension
 13
687.5
 23
1988.11451315925
 33
0.0
 14
860.0
 24
1903.11451315925
 34
0.0
 50
0.0
100
AcDbRotatedDimension
1001
ACAD
1000
DSTYLE
1002
{
1070
142
1040
1e-05
1070
41
1040
0.0
1070
140
1040
16.0
1070
340
1005
29
1002
}
  0
DIMENSION
  5
160
330
17
100
AcDbEntity
  8
0
100
AcDbDimension
280
0
  2
*D4
  3
STANDARD
 10
630.0
 20
2102.6066560733343
 30
0.0
 11
493.125
 21
2093.9816560733343
 31
0.0
 70
32
 71
5
  1
880
100
AcDbAlignedDimension
 13
630.0
 23
2059.3645131592502
 33
0.0
 14
356.25
 24
2128.1145131592502
 34
0.0
 50
0.0
100
AcDbRotatedDimension
1001
ACAD
1000
DSTYLE
1002
{
1070
142
1040
1e-05
1070
41
1040
0.0
1070
140
1040
16.0
1070
340
1005
29
1002
}
  0
DIMENSION
  5
16F
330
17
100
AcDbEntity
  8
0
100
AcDbDimension
280
0
  2
*D5
  3
STANDARD
 10
692.5
 20
2164.679931417897
 30
0.0
 11
493.125
 21
2156.054931417897
 31
0.0
 70
32
 71
5
  1
980
100
AcDbAlignedDimension
 13
692.5
 23
2128.1145131592502
 33
0.0
 14
293.75
 24
2116.8645131592502
 34
0.0
 50
0.0
100
AcDbRotatedDimension
1001
ACAD
1000
DSTYLE
1002
{
1070
142
1040
1e-05
1070
41
1040
0.0
1070
140
1040
16.0
1070
340
1005
29
1002
}
  0
DIMENSION
  5
17E
330
17
100
AcDbEntity
  8
0
100
AcDbDimension
280
0
  2
*D6
  3
STANDARD
 10
860.0
 20
1761.55276920764
 30
0.0
 11
505.0
 21
1752.92776920764
 31
0.0
 70
32
 71
5
  1
1229
100
AcDbAlignedDimension
 13
860.0
 23
1978.11451315925
 33
0.0
 14
150.0
 24
1903.11451315925
 34
0.0
 50
0.0
100
AcDbRotatedDimension
1001
ACAD
1000
DSTYLE
1002
{
1070
142
1040
1e-05
1070
41
1040
0.0
1070
140
1040
16.0
1070
340
1005
29
1002
}
  0
LINE
  5
18D
330
17
100
AcDbEntity
  8
0
100
AcDbLine
 10
1680.1168715999997
 20
2197.341301856775
 30
0.0
 11
1679.944214620375
 21
2188.5930054759
 31
0.0
  0
LINE
  5
18E
330
17
100
AcDbEntity
  8
0
100
AcDbLine
 10
1679.6192146203748
 20
2188.5930054759
 30
0.0
 11
1679.944214620375
 21
2188.5930054759
 31
0.0
  0
MTEXT
  5
18F
330
17
100
AcDbEntity
  8
0
100
AcDbMText
 10
1655.781714620375
 20
2186.5930054759
 30
0.0
 40
16.0
 71
1
  1
0.26
  0
LINE
  5
190
330
17
100
AcDbEntity
  8
0
100
AcDbLine
 10
1679.6192146203748
 20
2188.5930054759
 30
0.0
 11
1677.9942146203748
 21
2188.5930054759
 31
0.0
  0
MTEXT
  5
191
330
17
100
AcDbEntity
  8
0
100
AcDbMText
 10
1660.8067146203748
 20
2186.5930054759
 30
0.0
 40
16.0
 71
1
  1
1.3
  0
LINE
  5
192
330
17
100
AcDbEntity
  8
0
100
AcDbLine
 10
1677.9942146203748
 20
2188.5930054759
 30
0.0
 11
1678.0
 21
2199.8430039884
 31
0.0
  0
MTEXT
  5
193
330
17
100
AcDbEntity
  8
0
100
AcDbMText
 10
1663.9942146203748
 20
2202.21800473215
 30
0.0
 40
16.0
 71
1
  1
9
  0
LINE
  5
194
330
17
100
AcDbEntity
  8
0
100
AcDbLine
 10
1678.0
 20
2199.8430039884
 30
0.0
 11
1753.0
 21
2199.8430039884
 31
0.0
  0
MTEXT
  5
195
330
17
100
AcDbEntity
  8
0
100
AcDbMText
 10
1703.5
 20
2217.8430039884
 30
0.0
 40
16.0
 71
1
  1
60
  0
LINE
  5
196
330
17
100
AcDbEntity
  8
0
100
AcDbLine
 10
1753.0
 20
2199.8430039884
 30
0.0
 11
1753.0
 21
2144.8430039884
 31
0.0
  0
MTEXT
  5
197
330
17
100
AcDbEntity
  8
0
100
AcDbMText
 10
1755.0
 20
2180.3430039884
 30
0.0
 40
16.0
 71
1
  1
44
  0
LINE
  5
198
330
17
100
AcDbEntity
  8
0
100
AcDbLine
 10
1753.0
 20
2144.8430039884
 30
0.0
 11
1740.5
 21
2144.8430039884
 31
0.0
  0
MTEXT
  5
199
330
17
100
AcDbEntity
  8
0
100
AcDbMText
 10
1734.75
 20
2162.8430039884
 30
0.0
 40
16.0
 71
1
  1
10
  0
LINE
  5
19A
330
17
100
AcDbEntity
  8
0
100
AcDbLine
 10
1740.5
 20
2144.8430039884
 30
0.0
 11
1740.5
 21
2102.3430039884
 31
0.0
  0
MTEXT
  5
19B
330
17
100
AcDbEntity
  8
0
100
AcDbMText
 10
1742.5
 20
2131.5930039884
 30
0.0
 40
16.0
 71
1
  1
34
  0
ARC
  5
19C
330
17
100
AcDbEntity
  8
0
100
AcDbCircle
 10
1721.75
 20
2102.3430039884
 30
0.0
 40
18.75
100
AcDbArc
 50
270.0
 51
0.0
  0
LINE
  5
19D
330
17
100
AcDbEntity
  8
0
100
AcDbLine
 10
1721.75
 20
2083.5930039884
 30
0.0
 11
1721.75
 21
2058.5930039884
 31
0.0
  0
MTEXT
  5
19E
330
17
100
AcDbEntity
  8
0
100
AcDbMText
 10
1695.75
 20
2079.0930039884
 30
0.0
 40
16.0
 71
1
  1
20
  0
LINE
  5
19F
330
17
100
AcDbEntity
  8
0
100
AcDbLine
 10
1721.75
 20
2058.5930039884
 30
0.0
 11
1709.25
 21
2058.5930039884
 31
0.0
  0
MTEXT
  5
1A0
330
17
100
AcDbEntity
  8
0
100
AcDbMText
 10
1703.5
 20
2056.5930039884
 30
0.0
 40
16.0
 71
1
  1
10
  0
LINE
  5
1A1
330
17
100
AcDbEntity
  8
0
100
AcDbLine
 10
1709.25
 20
2058.5930039884
 30
0.0
 11
1709.25
 21
2027.3430039884001
 31
0.0
  0
MTEXT
  5
1A2
330
17
100
AcDbEntity
  8
0
100
AcDbMText
 10
1683.25
 20
2050.9680039884
 30
0.0
 40
16.0
 71
1
  1
25
  0
LINE
  5
1A3
330
17
100
AcDbEntity
  8
0
 62
1
100
AcDbLine
 10
1709.25
 20
2027.3430039884001
 30
0.0
 11
1596.75
 21
2027.3430039884001
 31
0.0
  0
MTEXT
  5
1A4
330
17
100
AcDbEntity
  8
0
100
AcDbMText
 10
1641.0
 20
2045.3430039884001
 30
0.0
 40
16.0
 71
1
  1
90
  0
LINE
  5
1A5
330
17
100
AcDbEntity
  8
0
100
AcDbLine
 10
1596.75
 20
2027.3430039884001
 30
0.0
 11
1596.75
 21
2008.5930039884001
 31
0.0
  0
MTEXT
  5
1A6
330
17
100
AcDbEntity
  8
0
100
AcDbMText
 10
1598.75
 20
2025.3430039884001
 30
0.0
 40
16.0
 71
1
  1
15
  0
LINE
  5
1A7
330
17
100
AcDbEntity
  8
0
 62
1
100
AcDbLine
 10
1596.75
 20
2008.5930039884001
 30
0.0
 11
1528.0
 21
2008.5930039884001
 31
0.0
  0
MTEXT
  5
1A8
330
17
100
AcDbEntity
  8
0
100
AcDbMText
 10
1550.375
 20
2026.5930039884001
 30
0.0
 40
16.0
 71
1
  1
55
  0
LINE
  5
1A9
330
17
100
AcDbEntity
  8
0
 62
1
100
AcDbLine
 10
1528.0
 20
2008.5930039884001
 30
0.0
 11
1528.0
 21
2071.0930039884
 31
0.0
  0
MTEXT
  5
1AA
330
17
100
AcDbEntity
  8
0
100
AcDbMText
 10
1530.0
 20
2047.8430039884001
 30
0.0
 40
16.0
 71
1
  1
50
  0
LINE
  5
1AB
330
17
100
AcDbEntity
  8
0
100
AcDbLine
 10
1528.0
 20
2071.0930039884
 30
0.0
 11
1539.25
 21
2071.0930039884
 31
0.0
  0
MTEXT
  5
1AC
330
17
100
AcDbEntity
  8
0
100
AcDbMText
 10
1527.625
 20
2069.0930039884
 30
0.0
 40
16.0
 71
1
  1
9
  0
LINE
  5
1AD
330
17
100
AcDbEntity
  8
0
100
AcDbLine
 10
1539.2500015466248
 20
2071.0930007112747
 30
0.0
 11
1539.2500015466248
 21
2069.4680007112747
 31
0.0
  0
MTEXT
  5
1AE
330
17
100
AcDbEntity
  8
0
100
AcDbMText
 10
1541.2500015466248
 20
2085.4680007112747
 30
0.0
 40
16.0
 71
1
  1
1.3
  0
LINE
  5
1AF
330
17
100
AcDbEntity
  8
0
100
AcDbLine
 10
1539.2500015466248
 20
2069.4680007112747
 30
0.0
 11
1530.5000015466248
 21
2069.4680007112747
 31
0.0
  0
MTEXT
  5
1B0
330
17
100
AcDbEntity
  8
0
100
AcDbMText
 10
1528.8750015466248
 20
2087.4680007112747
 30
0.0
 40
16.0
 71
1
  1
7
  0
MTEXT
  5
1B1
330
17
100
AcDbEntity
  8
0
100
AcDbMText
 10
1528.0
 20
2299.8430039884
 30
0.0
 40
16.0
 71
1
  1
614x1249=1
  0
MTEXT
  5
1B2
330
17
100
AcDbEntity
  8
0
100
AcDbMText
 10
1528.0
 20
2209.8430039884
 30
0.0
 40
24.0
 71
1
  1
绅士灰
  0
DIMENSION
  5
1B3
330
17
100
AcDbEntity
  8
0
100
AcDbDimension
280
0
  2
*D7
  3
STANDARD
 10
1777.245192307692
 20
2027.3430039884001
 30
0.0
 11
1768.620192307692
 21
2113.5930039884
 31
0.0
 70
32
 71
5
  1
138
100
AcDbAlignedDimension
 13
1596.75
 23
2027.3430039884001
 33
0.0
 14
1753.0
 24
2199.8430039884
 34
0.0
 50
90.0
100
AcDbRotatedDimension
1001
ACAD
1000
DSTYLE
1002
{
1070
142
1040
1e-05
1070
41
1040
0.0
1070
140
1040
16.0
1070
340
1005
29
1002
}
  0
LINE
  5
1C2
330
17
100
AcDbEntity
  8
0
100
AcDbLine
 10
1423.0000000000625
 20
1794.8401472576004
 30
0.0
 11
1797.9999999999372
 21
1794.8401472576004
 31
0.0
  0
LINE
  5
1C3
330
17
100
AcDbEntity
  8
0
100
AcDbLine
 10
1797.9999999999372
 20
1794.8401472576004
 30
0.0
 11
1797.9999999999372
 21
1732.3401472576004
 31
0.0
  0
LINE
  5
1C4
330
17
100
AcDbEntity
  8
0
100
AcDbLine
 10
1797.9999999999372
 20
1732.3401472576004
 30
0.0
 11
1423.0000000000625
 21
1732.3401472576004
 31
0.0
  0
LINE
  5
1C5
330
17
100
AcDbEntity
  8
0
100
AcDbLine
 10
1423.0000000000625
 20
1732.3401472576004
 30
0.0
 11
1423.0000000000625
 21
1794.8401472576004
 31
0.0
  0
LINE
  5
1C6
330
17
100
AcDbEntity
  8
0
100
AcDbLine
 10
1423.0000000000625
 20
1731.3860223301
 30
0.0
 11
1486.4541249276874
 21
1794.8401472576004
 31
0.0
  0
LINE
  5
1C7
330
17
100
AcDbEntity
  8
0
100
AcDbLine
 10
1494.6648030463125
 20
1732.3401472576004
 30
0.0
 11
1557.1648030461874
 21
1794.8401472576004
 31
0.0
  0
LINE
  5
1C8
330
17
100
AcDbEntity
  8
0
100
AcDbLine
 10
1565.3754811649376
 20
1732.3401472576004
 30
0.0
 11
1627.8754811649376
 21
1794.8401472576004
 31
0.0
  0
LINE
  5
1C9
330
17
100
AcDbEntity
  8
0
100
AcDbLine
 10
1636.0861592835627
 20
1732.3401472576004
 30
0.0
 11
1698.5861592835627
 21
1794.8401472576004
 31
0.0
  0
LINE
  5
1CA
330
17
100
AcDbEntity
  8
0
100
AcDbLine
 10
1706.7968374021875
 20
1732.3401472576004
 30
0.0
 11
1769.2968374021875
 21
1794.8401472576004
 31
0.0
  0
LINE
  5
1CB
330
17
100
AcDbEntity
  8
0
100
AcDbLine
 10
1777.5075155208124
 20
1732.3401472576004
 30
0.0
 11
1797.9999999999372
 21
1752.8326317368503
 31
0.0
  0
DIMENSION
  5
1CC
330
17
100
AcDbEntity
  8
0
100
AcDbDimension
280
0
  2
*D8
  3
STANDARD
 10
1784.9138920271223
 20
2199.8430039884
 30
0.0
 11
1793.5388920271223
 21
1997.3415756230002
 31
0.0
 70
32
 71
5
  1
2183
100
AcDbAlignedDimension
 13
1678.0
 23
2199.8430039884
 33
0.0
 14
1797.9999999999372
 24
1794.8401472576004
 34
0.0
 50
90.0
100
AcDbRotatedDimension
1001
ACAD
1000
DSTYLE
1002
{
1070
142
1040
1e-05
1070
41
1040
0.0
1070
140
1040
16.0
1070
340
1005
29
1002
}
  0
DIMENSION
  5
1DB
330
17
100
AcDbEntity
  8
0
100
AcDbDimension
280
0
  2
*D9
  3
STANDARD
 10
1489.9130859374372
 20
2071.0930039884
 30
0.0
 11
1498.5380859374372
 21
1932.9665756230002
 31
0.0
 70
32
 71
5
  1
2080
100
AcDbAlignedDimension
 13
1528.0
 23
2071.0930039884
 33
0.0
 14
1797.9999999999372
 24
1794.8401472576004
 34
0.0
 50
90.0
100
AcDbRotatedDimension
1001
ACAD
1000
DSTYLE
1002
{
1070
142
1040
1e-05
1070
41
1040
0.0
1070
140
1040
16.0
1070
340
1005
29
1002
}
  0
DIMENSION
  5
1EA
330
17
100
AcDbEntity
  8
0
100
AcDbDimension
280
0
  2
*D10
  3
STANDARD
 10
1572.9257812499372
 20
2008.5930039884001
 30
0.0
 11
1581.5507812499372
 21
1901.7165756230002
 31
0.0
 70
32
 71
5
  1
2030
100
AcDbAlignedDimension
 13
1596.75
 23
2008.5930039884001
 33
0.0
 14
1797.9999999999372
 24
1794.8401472576004
 34
0.0
 50
90.0
100
AcDbRotatedDimension
1001
ACAD
1000
DSTYLE
1002
{
1070
142
1040
1e-05
1070
41
1040
0.0
1070
140
1040
16.0
1070
340
1005
29
1002
}
  0
DIMENSION
  5
1F9
330
17
100
AcDbEntity
  8
0
100
AcDbDimension
280
0
  2
*D11
  3
STANDARD
 10
1648.4970703124372
 20
2027.3430039884001
 30
0.0
 11
1657.1220703124372
 21
1911.0915756230002
 31
0.0
 70
32
 71
5
  1
2045
100
AcDbAlignedDimension
 13
1709.25
 23
2027.3430039884001
 33
0.0
 14
1797.9999999999372
 24
1794.8401472576004
 34
0.0
 50
90.0
100
AcDbRotatedDimension
1001
ACAD
1000
DSTYLE
1002
{
1070
142
1040
1e-05
1070
41
1040
0.0
1070
140
1040
16.0
1070
340
1005
29
1002
}
  0
MTEXT
  5
208
330
17
100
AcDbEntity
  8
0
100
AcDbMText
 10
1580.5
 20
1844.8401472576004
 30
0.0
 40
18.0
 71
1
  1
吊脚20
  0
LINE
  5
209
330
17
100
AcDbEntity
  8
0
100
AcDbLine
 10
366.25
 20
1427.8695328971003
 30
0.0
 11
375.0
 21
1427.8695328971003
 31
0.0
  0
MTEXT
  5
20A
330
17
100
AcDbEntity
  8
0
100
AcDbMText
 10
364.625
 20
1445.8695328971003
 30
0.0
 40
16.0
 71
1
  1
7
  0
LINE
  5
20B
330
17
100
AcDbEntity
  8
0
100
AcDbLine
 10
375.0
 20
1427.8695328971003
 30
0.0
 11
375.0
 21
1390.3695328971003
 31
0.0
  0
MTEXT
  5
20C
330
17
100
AcDbEntity
  8
0
100
AcDbMText
 10
377.0
 20
1417.1195328971003
 30
0.0
 40
16.0
 71
1
  1
30
  0
LINE
  5
20D
330
17
100
AcDbEntity
  8
0
 62
1
100
AcDbLine
 10
375.0
 20
1390.3695328971003
 30
0.0
 11
325.0
 21
1390.3695328971003
 31
0.0
  0
MTEXT
  5
20E
330
17
100
AcDbEntity
  8
0
100
AcDbMText
 10
338.0
 20
1408.3695328971003
 30
0.0
 40
16.0
 71
1
  1
40
  0
ARC
  5
20F
330
17
100
AcDbEntity
  8
0
 62
1
100
AcDbCircle
 10
325.0
 20
1407.8695328971003
 30
0.0
 40
17.5
100
AcDbArc
 50
180.0
 51
-90.0
  0
LINE
  5
210
330
17
100
AcDbEntity
  8
0
100
AcDbLine
 10
307.5
 20
1407.8695328971003
 30
0.0
 11
205.0
 21
1407.8695328971003
 31
0.0
  0
MTEXT
  5
211
330
17
100
AcDbEntity
  8
0
100
AcDbMText
 10
244.25
 20
1425.8695328971003
 30
0.0
 40
16.0
 71
1
  1
82
  0
ARC
  5
212
330
17
100
AcDbEntity
  8
0
 62
1
100
AcDbCircle
 10
187.5
 20
1407.8695328971003
 30
0.0
 40
17.5
100
AcDbArc
 50
270.0
 51
-360.0
  0
LINE
  5
213
330
17
100
AcDbEntity
  8
0
 62
1
100
AcDbLine
 10
187.5
 20
1390.3695328971003
 30
0.0
 11
150.0
 21
1390.3695328971003
 31
0.0
  0
MTEXT
  5
214
330
17
100
AcDbEntity
  8
0
100
AcDbMText
 10
156.75
 20
1388.3695328971003
 30
0.0
 40
16.0
 71
1
  1
30
  0
LINE
  5
215
330
17
100
AcDbEntity
  8
0
100
AcDbLine
 10
150.0
 20
1390.3695328971003
 30
0.0
 11
150.0
 21
1402.8695328971003
 31
0.0
  0
MTEXT
  5
216
330
17
100
AcDbEntity
  8
0
100
AcDbMText
 10
124.0
 20
1404.6195328971003
 30
0.0
 40
16.0
 71
1
  1
10
  0
LINE
  5
217
330
17
100
AcDbEntity
  8
0
100
AcDbLine
 10
150.0
 20
1402.8695328971003
 30
0.0
 11
165.0
 21
1402.8695328971003
 31
0.0
  0
MTEXT
  5
218
330
17
100
AcDbEntity
  8
0
100
AcDbMText
 10
145.5
 20
1420.8695328971003
 30
0.0
 40
16.0
 71
1
  1
12
  0
LINE
  5
219
330
17
100
AcDbEntity
  8
0
100
AcDbLine
 10
165.0
 20
1402.8695328971003
 30
0.0
 11
165.0
 21
1496.6195328971003
 31
0.0
  0
MTEXT
  5
21A
330
17
100
AcDbEntity
  8
0
100
AcDbMText
 10
167.0
 20
1457.7445328971003
 30
0.0
 40
16.0
 71
1
  1
75
  0
LINE
  5
21B
330
17
100
AcDbEntity
  8
0
 62
1
100
AcDbLine
 10
165.0
 20
1496.6195328971003
 30
0.0
 11
375.0
 21
1496.6195328971003
 31
0.0
  0
MTEXT
  5
21C
330
17
100
AcDbEntity
  8
0
100
AcDbMText
 10
252.0
 20
1514.6195328971003
 30
0.0
 40
16.0
 71
1
  1
168
  0
LINE
  5
21D
330
17
100
AcDbEntity
  8
0
100
AcDbLine
 10
375.0
 20
1496.6195328971003
 30
0.0
 11
375.0
 21
1477.8695328971003
 31
0.0
  0
MTEXT
  5
21E
330
17
100
AcDbEntity
  8
0
100
AcDbMText
 10
377.0
 20
1493.8695328971003
 30
0.0
 40
16.0
 71
1
  1
15
  0
LINE
  5
21F
330
17
100
AcDbEntity
  8
0
100
AcDbLine
 10
375.0
 20
1477.8695328971003
 30
0.0
 11
366.25
 21
1477.8695328971003
 31
0.0
  0
MTEXT
  5
220
330
17
100
AcDbEntity
  8
0
100
AcDbMText
 10
364.625
 20
1495.8695328971003
 30
0.0
 40
16.0
 71
1
  1
7
  0
MTEXT
  5
221
330
17
100
AcDbEntity
  8
0
100
AcDbMText
 10
150.0
 20
1340.3695328971003
 30
0.0
 40
16.0
 71
1
  1
512x2023=1
  0
MTEXT
  5
222
330
17
100
AcDbEntity
  8
0
100
AcDbMText
 10
150.0
 20
1576.6195328971003
 30
0.0
 40
24.0
 71
1
  1
直纹拉丝红古铜
  0
LINE
  5
223
330
17
100
AcDbEntity
  8
0
100
AcDbLine
 10
674.5640783231376
 20
1429.1823485617251
 30
0.0
 11
665.8140783231376
 21
1429.1823485617251
 31
0.0
  0
MTEXT
  5
224
330
17
100
AcDbEntity
  8
0
100
AcDbMText
 10
664.1890783231376
 20
1447.1823485617251
 30
0.0
 40
16.0
 71
1
  1
7
  0
LINE
  5
225
330
17
100
AcDbEntity
  8
0
100
AcDbLine
 10
665.8140783231376
 20
1429.1823485617251
 30
0.0
 11
665.8140783231376
 21
1391.6823485617251
 31
0.0
  0
MTEXT
  5
226
330
17
100
AcDbEntity
  8
0
100
AcDbMText
 10
667.8140783231376
 20
1418.4323485617251
 30
0.0
 40
16.0
 71
1
  1
30
  0
LINE
  5
227
330
17
100
AcDbEntity
  8
0
 62
1
100
AcDbLine
 10
665.8140783231376
 20
1391.6823485617251
 30
0.0
 11
715.8140783231376
 21
1391.6823485617251
 31
0.0
  0
MTEXT
  5
228
330
17
100
AcDbEntity
  8
0
100
AcDbMText
 10
678.8140783231376
 20
1389.6823485617251
 30
0.0
 40
16.0
 71
1
  1
40
  0
ARC
  5
229
330
17
100
AcDbEntity
  8
0
 62
1
100
AcDbCircle
 10
715.8140783231376
 20
1409.1823485617251
 30
0.0
 40
17.5
100
AcDbArc
 50
270.0
 51
-360.0
  0
LINE
  5
22A
330
17
100
AcDbEntity
  8
0
100
AcDbLine
 10
733.3140783231376
 20
1409.1823485617251
 30
0.0
 11
859.5640783231376
 21
1409.1823485617251
 31
0.0
  0
MTEXT
  5
22B
330
17
100
AcDbEntity
  8
0
100
AcDbMText
 10
778.4390783231376
 20
1427.1823485617251
 30
0.0
 40
16.0
 71
1
  1
101
  0
ARC
  5
22C
330
17
100
AcDbEntity
  8
0
 62
1
100
AcDbCircle
 10
878.3140783231376
 20
1409.1823485617251
 30
0.0
 40
18.75
100
AcDbArc
 50
180.0
 51
-90.0
  0
LINE
  5
22D
330
17
100
AcDbEntity
  8
0
 62
1
100
AcDbLine
 10
878.3140783231376
 20
1390.4323485617251
 30
0.0
 11
884.5640783231376
 21
1390.4323485617251
 31
0.0
  0
MTEXT
  5
22E
330
17
100
AcDbEntity
  8
0
100
AcDbMText
 10
875.4390783231376
 20
1388.4323485617251
 30
0.0
 40
16.0
 71
1
  1
5
  0
LINE
  5
22F
330
17
100
AcDbEntity
  8
0
 62
1
100
AcDbLine
 10
884.5640783231376
 20
1390.4323485617251
 30
0.0
 11
890.7512626585125
 21
1396.6195328971003
 31
0.0
  0
LINE
  5
230
330
17
100
AcDbEntity
  8
0
 62
1
100
AcDbLine
 10
890.7512626585125
 20
1396.6195328971003
 30
0.0
 11
896.9384469938876
 21
1390.4323485617251
 31
0.0
  0
LINE
  5
231
330
17
100
AcDbEntity
  8
0
 62
1
100
AcDbLine
 10
896.9384469938876
 20
1390.4323485617251
 30
0.0
 11
909.4384469938876
 21
1390.4323485617251
 31
0.0
  0
MTEXT
  5
232
330
17
100
AcDbEntity
  8
0
100
AcDbMText
 10
891.1884469938876
 20
1388.4323485617251
 30
0.0
 40
16.0
 71
1
  1
10
  0
LINE
  5
233
330
17
100
AcDbEntity
  8
0
 62
1
100
AcDbLine
 10
909.4384469938876
 20
1390.4323485617251
 30
0.0
 11
915.6256313292625
 21
1396.6195328971003
 31
0.0
  0
LINE
  5
234
330
17
100
AcDbEntity
  8
0
 62
1
100
AcDbLine
 10
915.6256313292625
 20
1396.6195328971003
 30
0.0
 11
921.8128156646375
 21
1390.4323485617251
 31
0.0
  0
LINE
  5
235
330
17
100
AcDbEntity
  8
0
 62
1
100
AcDbLine
 10
921.8128156646375
 20
1390.4323485617251
 30
0.0
 11
934.3128156646375
 21
1390.4323485617251
 31
0.0
  0
MTEXT
  5
236
330
17
100
AcDbEntity
  8
0
100
AcDbMText
 10
916.0628156646375
 20
1388.4323485617251
 30
0.0
 40
16.0
 71
1
  1
10
  0
LINE
  5
237
330
17
100
AcDbEntity
  8
0
 62
1
100
AcDbLine
 10
934.3128156646375
 20
1390.4323485617251
 30
0.0
 11
940.5000000000126
 21
1396.6195328971003
 31
0.0
  0
LINE
  5
238
330
17
100
AcDbEntity
  8
0
100
AcDbLine
 10
940.5000000000126
 20
1396.6195328971003
 30
0.0
 11
940.5000000000126
 21
1407.8695328971003
 31
0.0
  0
MTEXT
  5
239
330
17
100
AcDbEntity
  8
0
100
AcDbMText
 10
942.5000000000126
 20
1412.6195328971003
 30
0.0
 40
16.0
 71
1
  1
9
  0
LINE
  5
23A
330
17
100
AcDbEntity
  8
0
100
AcDbLine
 10
940.5000000000126
 20
1407.8695328971003
 30
0.0
 11
915.5000000000126
 21
1407.8695328971003
 31
0.0
  0
MTEXT
  5
23B
330
17
100
AcDbEntity
  8
0
100
AcDbMText
 10
916.0000000000126
 20
1405.8695328971003
 30
0.0
 40
16.0
 71
1
  1
20
  0
LINE
  5
23C
330
17
100
AcDbEntity
  8
0
100
AcDbLine
 10
915.5000000000126
 20
1407.8695328971003
 30
0.0
 11
915.5000000000126
 21
1425.3695328971003
 31
0.0
  0
MTEXT
  5
23D
330
17
100
AcDbEntity
  8
0
100
AcDbMText
 10
917.5000000000126
 20
1423.8695328971003
 30
0.0
 40
16.0
 71
1
  1
14
  0
LINE
  5
23E
330
17
100
AcDbEntity
  8
0
100
AcDbLine
 10
915.5000000000126
 20
1425.3695328971003
 30
0.0
 11
903.0000000000126
 21
1425.3695328971003
 31
0.0
  0
MTEXT
  5
23F
330
17
100
AcDbEntity
  8
0
100
AcDbMText
 10
897.2500000000126
 20
1423.3695328971003
 30
0.0
 40
16.0
 71
1
  1
10
  0
LINE
  5
240
330
17
100
AcDbEntity
  8
0
100
AcDbLine
 10
903.0000000000126
 20
1425.3695328971003
 30
0.0
 11
903.0000000000126
 21
1415.3695328971003
 31
0.0
  0
MTEXT
  5
241
330
17
100
AcDbEntity
  8
0
100
AcDbMText
 10
905.0000000000126
 20
1423.3695328971003
 30
0.0
 40
16.0
 71
1
  1
8
  0
LINE
  5
242
330
17
100
AcDbEntity
  8
0
100
AcDbLine
 10
903.0000000000126
 20
1415.3695328971003
 30
0.0
 11
874.2500000000126
 21
1415.3695328971003
 31
0.0
  0
MTEXT
  5
243
330
17
100
AcDbEntity
  8
0
100
AcDbMText
 10
876.6250000000126
 20
1413.3695328971003
 30
0.0
 40
16.0
 71
1
  1
23
  0
LINE
  5
244
330
17
100
AcDbEntity
  8
0
100
AcDbLine
 10
874.2500000000126
 20
1415.3695328971003
 30
0.0
 11
874.2500000000126
 21
1496.6195328971003
 31
0.0
  0
MTEXT
  5
245
330
17
100
AcDbEntity
  8
0
100
AcDbMText
 10
876.2500000000126
 20
1463.9945328971003
 30
0.0
 40
16.0
 71
1
  1
65
  0
LINE
  5
246
330
17
100
AcDbEntity
  8
0
 62
1
100
AcDbLine
 10
874.2500000000126
 20
1496.6195328971003
 30
0.0
 11
665.5000000000126
 21
1496.6195328971003
 31
0.0
  0
MTEXT
  5
247
330
17
100
AcDbEntity
  8
0
100
AcDbMText
 10
751.8750000000126
 20
1514.6195328971003
 30
0.0
 40
16.0
 71
1
  1
167
  0
LINE
  5
248
330
17
100
AcDbEntity
  8
0
100
AcDbLine
 10
665.5000000000126
 20
1496.6195328971003
 30
0.0
 11
665.5000000000126
 21
1477.8695328971003
 31
0.0
  0
MTEXT
  5
249
330
17
100
AcDbEntity
  8
0
100
AcDbMText
 10
639.5000000000126
 20
1495.2445328971003
 30
0.0
 40
16.0
 71
1
  1
15
  0
LINE
  5
24A
330
17
100
AcDbEntity
  8
0
100
AcDbLine
 10
665.5000000000126
 20
1477.8695328971003
 30
0.0
 11
674.2500000000126
 21
1477.8695328971003
 31
0.0
  0
MTEXT
  5
24B
330
17
100
AcDbEntity
  8
0
100
AcDbMText
 10
663.8750000000126
 20
1475.8695328971003
 30
0.0
 40
16.0
 71
1
  1
7
  0
MTEXT
  5
24C
330
17
100
AcDbEntity
  8
0
100
AcDbMText
 10
665.5000000000126
 20
1340.4323485617251
 30
0.0
 40
16.0
 71
1
  1
611x2023=1
  0
MTEXT
  5
24D
330
17
100
AcDbEntity
  8
0
100
AcDbMText
 10
665.5000000000126
 20
1576.6195328971003
 30
0.0
 40
24.0
 71
1
  1
直纹拉丝红古铜
  0
LINE
  5
24E
330
17
100
AcDbEntity
  8
0
 62
7
100
AcDbLine
 10
171.82572962508
 20
1050.9321711279626
 30
0.0
 11
159.32572962508
 21
1050.9321711279626
 31
0.0
  0
MTEXT
  5
24F
330
17
100
AcDbEntity
  8
0
100
AcDbMText
 10
153.57572962508
 20
1068.9321711279626
 30
0.0
 40
16.0
 71
1
  1
10
  0
LINE
  5
250
330
17
100
AcDbEntity
  8
0
 62
7
100
AcDbLine
 10
159.32572962508
 20
1050.9321711279626
 30
0.0
 11
159.32572962508
 21
1013.4321711279999
 31
0.0
  0
MTEXT
  5
251
330
17
100
AcDbEntity
  8
0
100
AcDbMText
 10
161.32572962508
 20
1040.1821711279813
 30
0.0
 40
16.0
 71
1
  1
30
  0
LINE
  5
252
330
17
100
AcDbEntity
  8
0
 62
7
100
AcDbLine
 10
159.32572962508
 20
1013.4321711279999
 30
0.0
 11
246.82572962508
 21
1013.4321711279999
 31
0.0
  0
MTEXT
  5
253
330
17
100
AcDbEntity
  8
0
100
AcDbMText
 10
191.07572962508
 20
1011.4321711279999
 30
0.0
 40
16.0
 71
1
  1
70
  0
LINE
  5
254
330
17
100
AcDbEntity
  8
0
 62
7
100
AcDbLine
 10
246.82572962508
 20
1013.4321711279999
 30
0.0
 11
246.82572962508
 21
1050.9321711279626
 31
0.0
  0
MTEXT
  5
255
330
17
100
AcDbEntity
  8
0
100
AcDbMText
 10
248.82572962508
 20
1040.1821711279813
 30
0.0
 40
16.0
 71
1
  1
30
  0
LINE
  5
256
330
17
100
AcDbEntity
  8
0
 62
7
100
AcDbLine
 10
246.82572962508
 20
1050.9321711279626
 30
0.0
 11
234.32572962508
 21
1050.9321711279626
 31
0.0
  0
MTEXT
  5
257
330
17
100
AcDbEntity
  8
0
100
AcDbMText
 10
228.57572962508
 20
1068.9321711279626
 30
0.0
 40
16.0
 71
1
  1
10
  0
MTEXT
  5
258
330
17
100
AcDbEntity
  8
0
100
AcDbMText
 10
159.32572962508
 20
963.4321711279999
 30
0.0
 40
16.0
 71
1
  1
140x1657=2
  0
MTEXT
  5
259
330
17
100
AcDbEntity
  8
0
100
AcDbMText
 10
159.32572962508
 20
1130.9321711279626
 30
0.0
 40
24.0
 71
1
  1
绅士灰
  0
LINE
  5
25A
330
17
100
AcDbEntity
  8
0
 62
7
100
AcDbLine
 10
165.57572962508
 20
712.07735532158
 30
0.0
 11
159.32572962508
 21
712.07735532158
 31
0.0
  0
MTEXT
  5
25B
330
17
100
AcDbEntity
  8
0
100
AcDbMText
 10
156.45072962508
 20
730.07735532158
 30
0.0
 40
16.0
 71
1
  1
5
  0
LINE
  5
25C
330
17
100
AcDbEntity
  8
0
 62
7
100
AcDbLine
 10
159.32572962508
 20
712.07735532158
 30
0.0
 11
159.32572962508
 21
693.32735532158
 31
0.0
  0
MTEXT
  5
25D
330
17
100
AcDbEntity
  8
0
100
AcDbMText
 10
133.32572962508
 20
710.70235532158
 30
0.0
 40
16.0
 71
1
  1
15
  0
LINE
  5
25E
330
17
100
AcDbEntity
  8
0
 62
7
100
AcDbLine
 10
159.32572962508
 20
693.32735532158
 30
0.0
 11
315.57572962508
 21
693.32735532158
 31
0.0
  0
MTEXT
  5
25F
330
17
100
AcDbEntity
  8
0
100
AcDbMText
 10
219.45072962508
 20
691.32735532158
 30
0.0
 40
16.0
 71
1
  1
125
  0
LINE
  5
260
330
17
100
AcDbEntity
  8
0
 62
7
100
AcDbLine
 10
315.57572962508
 20
693.32735532158
 30
0.0
 11
315.57572962508
 21
712.07735532158
 31
0.0
  0
MTEXT
  5
261
330
17
100
AcDbEntity
  8
0
100
AcDbMText
 10
317.57572962508
 20
709.32735532158
 30
0.0
 40
16.0
 71
1
  1
15
  0
LINE
  5
262
330
17
100
AcDbEntity
  8
0
 62
7
100
AcDbLine
 10
315.57572962508
 20
712.07735532158
 30
0.0
 11
309.32572962508
 21
712.07735532158
 31
0.0
  0
MTEXT
  5
263
330
17
100
AcDbEntity
  8
0
100
AcDbMText
 10
306.45072962508
 20
730.07735532158
 30
0.0
 40
16.0
 71
1
  1
5
  0
MTEXT
  5
264
330
17
100
AcDbEntity
  8
0
100
AcDbMText
 10
159.32572962508
 20
643.32735532158
 30
0.0
 40
16.0
 71
1
  1
165x303=38
  0
MTEXT
  5
265
330
17
100
AcDbEntity
  8
0
100
AcDbMText
 10
159.32572962508
 20
792.07735532158
 30
0.0
 40
24.0
 71
1
  1
绅士灰
  0
LINE
  5
266
330
17
100
AcDbEntity
  8
0
 62
7
100
AcDbLine
 10
472.87812429191
 20
690.63102858703
 30
0.0
 11
472.87812429191
 21
706.88102858703
 31
0.0
  0
MTEXT
  5
267
330
17
100
AcDbEntity
  8
0
100
AcDbMText
 10
474.87812429191
 20
704.88102858703
 30
0.0
 40
16.0
 71
1
  1
13
  0
LINE
  5
268
330
17
100
AcDbEntity
  8
0
 62
7
100
AcDbLine
 10
472.87812429191
 20
706.88102858703
 30
0.0
 11
497.87812429191
 21
706.88102858703
 31
0.0
  0
MTEXT
  5
269
330
17
100
AcDbEntity
  8
0
100
AcDbMText
 10
473.37812429191
 20
724.88102858703
 30
0.0
 40
16.0
 71
1
  1
20
  0
LINE
  5
26A
330
17
100
AcDbEntity
  8
0
 62
7
100
AcDbLine
 10
497.87812429191
 20
706.88102858703
 30
0.0
 11
497.87812429191
 21
690.63102858703
 31
0.0
  0
MTEXT
  5
26B
330
17
100
AcDbEntity
  8
0
100
AcDbMText
 10
499.87812429191
 20
706.63102858703
 30
0.0
 40
16.0
 71
1
  1
13
  0
MTEXT
  5
26C
330
17
100
AcDbEntity
  8
0
100
AcDbMText
 10
472.87812429191
 20
640.63102858703
 30
0.0
 40
16.0
 71
1
  1
44x303=12
  0
MTEXT
  5
26D
330
17
100
AcDbEntity
  8
0
100
AcDbMText
 10
472.87812429191
 20
786.88102858703
 30
0.0
 40
24.0
 71
1
  1
香槟银
  0
LINE
  5
26E
330
17
100
AcDbEntity
  8
0
 62
7
100
AcDbLine
 10
479.12812429191
 20
1077.9321711279624
 30
0.0
 11
472.87812429191
 21
1077.9321711279624
 31
0.0
  0
MTEXT
  5
26F
330
17
100
AcDbEntity
  8
0
100
AcDbMText
 10
470.00312429191
 20
1095.9321711279624
 30
0.0
 40
16.0
 71
1
  1
5
  0
LINE
  5
270
330
17
100
AcDbEntity
  8
0
 62
7
100
AcDbLine
 10
472.87812429191
 20
1077.9321711279624
 30
0.0
 11
472.87812429191
 21
1025.432171128
 31
0.0
  0
MTEXT
  5
271
330
17
100
AcDbEntity
  8
0
100
AcDbMText
 10
474.87812429191
 20
1059.6821711279813
 30
0.0
 40
16.0
 71
1
  1
42
  0
LINE
  5
272
330
17
100
AcDbEntity
  8
0
 62
7
100
AcDbLine
 10
472.87812429191
 20
1025.432171128
 30
0.0
 11
702.87812429191
 21
1025.432171128
 31
0.0
  0
MTEXT
  5
273
330
17
100
AcDbEntity
  8
0
100
AcDbMText
 10
569.87812429191
 20
1043.432171128
 30
0.0
 40
16.0
 71
1
  1
184
  0
LINE
  5
274
330
17
100
AcDbEntity
  8
0
 62
7
100
AcDbLine
 10
702.87812429191
 20
1025.432171128
 30
0.0
 11
702.87812429191
 21
1062.9321711279626
 31
0.0
  0
MTEXT
  5
275
330
17
100
AcDbEntity
  8
0
100
AcDbMText
 10
704.87812429191
 20
1052.1821711279813
 30
0.0
 40
16.0
 71
1
  1
30
  0
LINE
  5
276
330
17
100
AcDbEntity
  8
0
 62
7
100
AcDbLine
 10
702.87812429191
 20
1062.9321711279626
 30
0.0
 11
696.62812429191
 21
1062.9321711279626
 31
0.0
  0
MTEXT
  5
277
330
17
100
AcDbEntity
  8
0
100
AcDbMText
 10
693.75312429191
 20
1080.9321711279626
 30
0.0
 40
16.0
 71
1
  1
5
  0
MTEXT
  5
278
330
17
100
AcDbEntity
  8
0
100
AcDbMText
 10
472.87812429191
 20
975.4321711279999
 30
0.0
 40
16.0
 71
1
  1
267x565=2
  0
MTEXT
  5
279
330
17
100
AcDbEntity
  8
0
100
AcDbMText
 10
472.87812429191
 20
1157.9321711279624
 30
0.0
 40
24.0
 71
1
  1
绅士灰
  0
LINE
  5
27A
330
17
100
AcDbEntity
  8
0
 62
7
100
AcDbLine
 10
894.7115921327102
 20
1077.9321711279624
 30
0.0
 11
888.4615921327102
 21
1077.9321711279624
 31
0.0
  0
MTEXT
  5
27B
330
17
100
AcDbEntity
  8
0
100
AcDbMText
 10
885.5865921327102
 20
1095.9321711279624
 30
0.0
 40
16.0
 71
1
  1
5
  0
LINE
  5
27C
330
17
100
AcDbEntity
  8
0
 62
7
100
AcDbLine
 10
888.4615921327102
 20
1077.9321711279624
 30
0.0
 11
888.4615921327102
 21
1025.432171128
 31
0.0
  0
MTEXT
  5
27D
330
17
100
AcDbEntity
  8
0
100
AcDbMText
 10
890.4615921327102
 20
1059.6821711279813
 30
0.0
 40
16.0
 71
1
  1
42
  0
LINE
  5
27E
330
17
100
AcDbEntity
  8
0
 62
7
100
AcDbLine
 10
888.4615921327102
 20
1025.432171128
 30
0.0
 11
1118.4615921326977
 21
1025.432171128
 31
0.0
  0
MTEXT
  5
27F
330
17
100
AcDbEntity
  8
0
100
AcDbMText
 10
985.4615921327039
 20
1043.432171128
 30
0.0
 40
16.0
 71
1
  1
184
  0
LINE
  5
280
330
17
100
AcDbEntity
  8
0
 62
7
100
AcDbLine
 10
1118.4615921326977
 20
1025.432171128
 30
0.0
 11
1118.4615921326977
 21
1044.182171128
 31
0.0
  0
MTEXT
  5
281
330
17
100
AcDbEntity
  8
0
100
AcDbMText
 10
1120.4615921326977
 20
1041.432171128
 30
0.0
 40
16.0
 71
1
  1
15
  0
LINE
  5
282
330
17
100
AcDbEntity
  8
0
 62
7
100
AcDbLine
 10
1118.4615921326977
 20
1044.182171128
 30
0.0
 11
1112.2115921326977
 21
1044.182171128
 31
0.0
  0
MTEXT
  5
283
330
17
100
AcDbEntity
  8
0
100
AcDbMText
 10
1109.3365921326977
 20
1062.182171128
 30
0.0
 40
16.0
 71
1
  1
5
  0
MTEXT
  5
284
330
17
100
AcDbEntity
  8
0
100
AcDbMText
 10
888.4615921327102
 20
975.4321711279999
 30
0.0
 40
16.0
 71
1
  1
252x565=2
  0
MTEXT
  5
285
330
17
100
AcDbEntity
  8
0
100
AcDbMText
 10
888.4615921327102
 20
1157.9321711279624
 30
0.0
 40
24.0
 71
1
  1
绅士灰
  0
LINE
  5
286
330
17
100
AcDbEntity
  8
0
100
AcDbLine
 10
1849.81293552695
 20
380.05471463570495
 30
0.0
 11
1499.8129355269512
 21
380.05471463570495
 31
0.0
  0
LINE
  5
287
330
17
100
AcDbEntity
  8
0
100
AcDbLine
 10
1499.8129355269512
 20
380.05471463570495
 30
0.0
 11
1499.8129355269512
 21
336.30471463570495
 31
0.0
  0
LINE
  5
288
330
17
100
AcDbEntity
  8
0
100
AcDbLine
 10
1499.8129355269512
 20
336.30471463570495
 30
0.0
 11
1482.728409465125
 21
336.30471463570495
 31
0.0
  0
LINE
  5
289
330
17
100
AcDbEntity
  8
0
100
AcDbLine
 10
1482.728409465125
 20
336.30471463570495
 30
0.0
 11
1482.728409465125
 21
322.83452964154253
 31
0.0
  0
LINE
  5
28A
330
17
100
AcDbEntity
  8
0
100
AcDbLine
 10
1482.728409465125
 20
322.83452964154253
 30
0.0
 11
1525.3865525303374
 21
322.83452964154253
 31
0.0
  0
LINE
  5
28B
330
17
100
AcDbEntity
  8
0
100
AcDbLine
 10
1525.3865525303374
 20
322.83452964154253
 30
0.0
 11
1525.3865525303374
 21
340.78596170653
 31
0.0
  0
LINE
  5
28C
330
17
100
AcDbEntity
  8
0
100
AcDbLine
 10
1849.81293552695
 20
380.05471463570495
 30
0.0
 11
1849.81293552695
 21
336.30471463570495
 31
0.0
  0
LINE
  5
28D
330
17
100
AcDbEntity
  8
0
100
AcDbLine
 10
1849.81293552695
 20
336.30471463570495
 30
0.0
 11
1866.897461588775
 21
336.30471463570495
 31
0.0
  0
LINE
  5
28E
330
17
100
AcDbEntity
  8
0
100
AcDbLine
 10
1866.897461588775
 20
336.30471463570495
 30
0.0
 11
1866.897461588775
 21
322.83452964154253
 31
0.0
  0
LINE
  5
28F
330
17
100
AcDbEntity
  8
0
100
AcDbLine
 10
1866.897461588775
 20
322.83452964154253
 30
0.0
 11
1824.2393185235624
 21
322.83452964154253
 31
0.0
  0
LINE
  5
290
330
17
100
AcDbEntity
  8
0
100
AcDbLine
 10
1824.2393185235624
 20
322.83452964154253
 30
0.0
 11
1824.2393185235624
 21
340.78596170653
 31
0.0
  0
LINE
  5
291
330
17
100
AcDbEntity
  8
0
100
AcDbLine
 10
1824.2393185235624
 20
340.78596170653
 30
0.0
 11
1525.3865525303374
 21
340.78596170653
 31
0.0
  0
LINE
  5
292
330
17
100
AcDbEntity
  8
0
100
AcDbLine
 10
1590.6150761005638
 20
310.4040804391675
 30
0.0
 11
1759.0107949533376
 21
310.4040804391675
 31
0.0
  0
LINE
  5
293
330
17
100
AcDbEntity
  8
0
100
AcDbLine
 10
1759.0107949533376
 20
310.4040804391675
 30
0.0
 11
1759.0107949533376
 21
53.40088746480504
 31
0.0
  0
LINE
  5
294
330
17
100
AcDbEntity
  8
0
100
AcDbLine
 10
1759.0107949533376
 20
53.40088746480504
 30
0.0
 11
1590.6150761005638
 21
53.40088746480504
 31
0.0
  0
LINE
  5
295
330
17
100
AcDbEntity
  8
0
100
AcDbLine
 10
1590.6150761005638
 20
53.40088746480504
 30
0.0
 11
1590.6150761005638
 21
310.4040804391675
 31
0.0
  0
LINE
  5
296
330
17
100
AcDbEntity
  8
0
100
AcDbLine
 10
1798.0995518230375
 20
353.72567202523
 30
0.0
 11
1812.4706471258123
 21
368.09676732800494
 31
0.0
  0
LINE
  5
297
330
17
100
AcDbEntity
  8
0
100
AcDbLine
 10
1798.0995518230375
 20
368.09676732800494
 30
0.0
 11
1812.4706471258123
 21
353.72567202523
 31
0.0
  0
LINE
  5
298
330
17
100
AcDbEntity
  8
0
100
AcDbLine
 10
1730.387593677825
 20
175.8643631947925
 30
0.0
 11
1744.7586889806
 21
190.23545849757997
 31
0.0
  0
LINE
  5
299
330
17
100
AcDbEntity
  8
0
100
AcDbLine
 10
1730.387593677825
 20
190.23545849757997
 30
0.0
 11
1744.7586889806
 21
175.8643631947925
 31
0.0
  0
LINE
  5
29A
330
17
100
AcDbEntity
  8
0
100
AcDbLine
 10
1817.1587228693
 20
283.81993336458004
 30
0.0
 11
1825.758420233625
 21
277.42590441462994
 31
0.0
  0
LINE
  5
29B
330
17
100
AcDbEntity
  8
0
100
AcDbLine
 10
1832.036013620875
 20
272.8093819889925
 30
0.0
 11
1840.4258082147498
 21
267.63649446860495
 31
0.0
  0
LINE
  5
29C
330
17
100
AcDbEntity
  8
0
100
AcDbLine
 10
1842.4670901799
 20
296.74746997555496
 30
0.0
 11
1832.0067555274625
 21
272.742238122255
 31
0.0
  0
LINE
  5
29D
330
17
100
AcDbEntity
  8
0
100
AcDbLine
 10
1842.4670901799
 20
296.74746997555496
 30
0.0
 11
1825.758420233625
 21
277.42590441462994
 31
0.0
  0
LINE
  5
29E
330
17
100
AcDbEntity
  8
0
100
AcDbLine
 10
1840.4258082147498
 20
267.63649446860495
 30
0.0
 11
1811.5434350565001
 21
256.97387381786746
 31
0.0
  0
LINE
  5
29F
330
17
100
AcDbEntity
  8
0
100
AcDbLine
 10
1817.1587228693
 20
283.81993336458004
 30
0.0
 11
1811.5434350565001
 21
256.97387381786746
 31
0.0
  0
LINE
  5
2A0
330
17
100
AcDbEntity
  8
0
100
AcDbLine
 10
1587.1094616492887
 20
290.24948303739245
 30
0.0
 11
1587.7802112603138
 21
290.92023264843
 31
0.0
  0
LINE
  5
2A1
330
17
100
AcDbEntity
  8
0
100
AcDbLine
 10
1587.1094616492887
 20
287.95951772651745
 30
0.0
 11
1590.0701765711888
 21
290.92023264843
 31
0.0
  0
LINE
  5
2A2
330
17
100
AcDbEntity
  8
0
100
AcDbLine
 10
1587.1094616492887
 20
285.66955241564244
 30
0.0
 11
1590.6150761005638
 21
289.17516686693
 31
0.0
  0
LINE
  5
2A3
330
17
100
AcDbEntity
  8
0
100
AcDbLine
 10
1590.6150761005638
 20
289.17516686693
 30
0.0
 11
1592.3601418820638
 21
290.92023264843
 31
0.0
  0
LINE
  5
2A4
330
17
100
AcDbEntity
  8
0
100
AcDbLine
 10
1587.1094616492887
 20
283.37958710476755
 30
0.0
 11
1590.6150761005638
 21
286.885201556055
 31
0.0
  0
LINE
  5
2A5
330
17
100
AcDbEntity
  8
0
100
AcDbLine
 10
1590.6150761005638
 20
286.885201556055
 30
0.0
 11
1594.120690551851
 21
290.39081600732993
 31
0.0
  0
LINE
  5
2A6
330
17
100
AcDbEntity
  8
0
100
AcDbLine
 10
1587.1094616492887
 20
281.08962179389255
 30
0.0
 11
1590.6150761005638
 21
284.59523624518
 31
0.0
  0
LINE
  5
2A7
330
17
100
AcDbEntity
  8
0
100
AcDbLine
 10
1590.6150761005638
 20
284.59523624518
 30
0.0
 11
1594.120690551851
 21
288.10085069645504
 31
0.0
  0
LINE
  5
2A8
330
17
100
AcDbEntity
  8
0
100
AcDbLine
 10
1587.1094616492887
 20
278.79965648302993
 30
0.0
 11
1590.6150761005638
 21
282.305270934305
 31
0.0
  0
LINE
  5
2A9
330
17
100
AcDbEntity
  8
0
100
AcDbLine
 10
1590.6150761005638
 20
282.305270934305
 30
0.0
 11
1594.120690551851
 21
285.81088538559254
 31
0.0
  0
LINE
  5
2AA
330
17
100
AcDbEntity
  8
0
100
AcDbLine
 10
1587.1094616492887
 20
276.50969117215504
 30
0.0
 11
1590.6150761005638
 21
280.01530562343
 31
0.0
  0
LINE
  5
2AB
330
17
100
AcDbEntity
  8
0
100
AcDbLine
 10
1590.6150761005638
 20
280.01530562343
 30
0.0
 11
1594.120690551851
 21
283.52092007471754
 31
0.0
  0
LINE
  5
2AC
330
17
100
AcDbEntity
  8
0
100
AcDbLine
 10
1587.1094616492887
 20
274.21972586128004
 30
0.0
 11
1590.6150761005638
 21
277.7253403125675
 31
0.0
  0
LINE
  5
2AD
330
17
100
AcDbEntity
  8
0
100
AcDbLine
 10
1590.6150761005638
 20
277.7253403125675
 30
0.0
 11
1594.120690551851
 21
281.23095476384253
 31
0.0
  0
LINE
  5
2AE
330
17
100
AcDbEntity
  8
0
100
AcDbLine
 10
1587.1094616492887
 20
271.92976055040504
 30
0.0
 11
1590.6150761005638
 21
275.4353750016925
 31
0.0
  0
LINE
  5
2AF
330
17
100
AcDbEntity
  8
0
100
AcDbLine
 10
1590.6150761005638
 20
275.4353750016925
 30
0.0
 11
1594.120690551851
 21
278.94098945296753
 31
0.0
  0
LINE
  5
2B0
330
17
100
AcDbEntity
  8
0
100
AcDbLine
 10
1587.1094616492887
 20
269.63979523953003
 30
0.0
 11
1590.6150761005638
 21
273.1454096908175
 31
0.0
  0
LINE
  5
2B1
330
17
100
AcDbEntity
  8
0
100
AcDbLine
 10
1590.6150761005638
 20
273.1454096908175
 30
0.0
 11
1594.120690551851
 21
276.6510241420925
 31
0.0
  0
LINE
  5
2B2
330
17
100
AcDbEntity
  8
0
100
AcDbLine
 10
1588.2592491320388
 20
268.4996174114175
 30
0.0
 11
1590.6150761005638
 21
270.85544437994247
 31
0.0
  0
LINE
  5
2B3
330
17
100
AcDbEntity
  8
0
100
AcDbLine
 10
1590.6150761005638
 20
270.85544437994247
 30
0.0
 11
1594.120690551851
 21
274.36105883123
 31
0.0
  0
LINE
  5
2B4
330
17
100
AcDbEntity
  8
0
100
AcDbLine
 10
1590.6150761005638
 20
268.56547906906746
 30
0.0
 11
1594.120690551851
 21
272.071093520355
 31
0.0
  0
LINE
  5
2B5
330
17
100
AcDbEntity
  8
0
100
AcDbLine
 10
1592.8391797537888
 20
268.4996174114175
 30
0.0
 11
1594.120690551851
 21
269.78112820948
 31
0.0
  0
LINE
  5
2B6
330
17
100
AcDbEntity
  8
0
100
AcDbLine
 10
1587.1094616492887
 20
229.86493070154248
 30
0.0
 11
1587.7802112603138
 21
230.53568031257996
 31
0.0
  0
LINE
  5
2B7
330
17
100
AcDbEntity
  8
0
100
AcDbLine
 10
1587.1094616492887
 20
227.57496539066753
 30
0.0
 11
1590.0701765711888
 21
230.53568031257996
 31
0.0
  0
LINE
  5
2B8
330
17
100
AcDbEntity
  8
0
100
AcDbLine
 10
1587.1094616492887
 20
225.28500007980497
 30
0.0
 11
1590.6150761005638
 21
228.79061453107997
 31
0.0
  0
LINE
  5
2B9
330
17
100
AcDbEntity
  8
0
100
AcDbLine
 10
1590.6150761005638
 20
228.79061453107997
 30
0.0
 11
1592.3601418820638
 21
230.53568031257996
 31
0.0
  0
LINE
  5
2BA
330
17
100
AcDbEntity
  8
0
100
AcDbLine
 10
1587.1094616492887
 20
222.99503476892997
 30
0.0
 11
1590.6150761005638
 21
226.50064922020496
 31
0.0
  0
LINE
  5
2BB
330
17
100
AcDbEntity
  8
0
100
AcDbLine
 10
1590.6150761005638
 20
226.50064922020496
 30
0.0
 11
1594.120690551851
 21
230.00626367149252
 31
0.0
  0
LINE
  5
2BC
330
17
100
AcDbEntity
  8
0
100
AcDbLine
 10
1587.1094616492887
 20
220.70506945805502
 30
0.0
 11
1590.6150761005638
 21
224.21068390934246
 31
0.0
  0
LINE
  5
2BD
330
17
100
AcDbEntity
  8
0
100
AcDbLine
 10
1590.6150761005638
 20
224.21068390934246
 30
0.0
 11
1594.120690551851
 21
227.71629836061751
 31
0.0
  0
LINE
  5
2BE
330
17
100
AcDbEntity
  8
0
100
AcDbLine
 10
1587.1094616492887
 20
218.41510414718002
 30
0.0
 11
1590.6150761005638
 21
221.92071859846746
 31
0.0
  0
LINE
  5
2BF
330
17
100
AcDbEntity
  8
0
100
AcDbLine
 10
1590.6150761005638
 20
221.92071859846746
 30
0.0
 11
1594.120690551851
 21
225.4263330497425
 31
0.0
  0
LINE
  5
2C0
330
17
100
AcDbEntity
  8
0
100
AcDbLine
 10
1587.1094616492887
 20
216.125138836305
 30
0.0
 11
1590.6150761005638
 21
219.6307532875925
 31
0.0
  0
LINE
  5
2C1
330
17
100
AcDbEntity
  8
0
100
AcDbLine
 10
1590.6150761005638
 20
219.6307532875925
 30
0.0
 11
1594.120690551851
 21
223.1363677388675
 31
0.0
  0
LINE
  5
2C2
330
17
100
AcDbEntity
  8
0
100
AcDbLine
 10
1587.1094616492887
 20
213.83517352543
 30
0.0
 11
1590.6150761005638
 21
217.34078797671745
 31
0.0
  0
LINE
  5
2C3
330
17
100
AcDbEntity
  8
0
100
AcDbLine
 10
1590.6150761005638
 20
217.34078797671745
 30
0.0
 11
1594.120690551851
 21
220.8464024279925
 31
0.0
  0
LINE
  5
2C4
330
17
100
AcDbEntity
  8
0
100
AcDbLine
 10
1587.1094616492887
 20
211.54520821456745
 30
0.0
 11
1590.6150761005638
 21
215.05082266584245
 31
0.0
  0
LINE
  5
2C5
330
17
100
AcDbEntity
  8
0
100
AcDbLine
 10
1590.6150761005638
 20
215.05082266584245
 30
0.0
 11
1594.120690551851
 21
218.55643711713
 31
0.0
  0
LINE
  5
2C6
330
17
100
AcDbEntity
  8
0
100
AcDbLine
 10
1587.1094616492887
 20
209.2552429036925
 30
0.0
 11
1590.6150761005638
 21
212.76085735496744
 31
0.0
  0
LINE
  5
2C7
330
17
100
AcDbEntity
  8
0
100
AcDbLine
 10
1590.6150761005638
 20
212.76085735496744
 30
0.0
 11
1594.120690551851
 21
216.266471806255
 31
0.0
  0
LINE
  5
2C8
330
17
100
AcDbEntity
  8
0
100
AcDbLine
 10
1588.2592491320388
 20
208.11506507557996
 30
0.0
 11
1590.6150761005638
 21
210.47089204410494
 31
0.0
  0
LINE
  5
2C9
330
17
100
AcDbEntity
  8
0
100
AcDbLine
 10
1590.6150761005638
 20
210.47089204410494
 30
0.0
 11
1594.120690551851
 21
213.97650649538
 31
0.0
  0
LINE
  5
2CA
330
17
100
AcDbEntity
  8
0
100
AcDbLine
 10
1590.6150761005638
 20
208.18092673323
 30
0.0
 11
1594.120690551851
 21
211.686541184505
 31
0.0
  0
LINE
  5
2CB
330
17
100
AcDbEntity
  8
0
100
AcDbLine
 10
1592.8391797537888
 20
208.11506507557996
 30
0.0
 11
1594.120690551851
 21
209.39657587362998
 31
0.0
  0
LINE
  5
2CC
330
17
100
AcDbEntity
  8
0
100
AcDbLine
 10
1587.1094616492887
 20
114.30748022004249
 30
0.0
 11
1587.7802112603138
 21
114.97822983107997
 31
0.0
  0
LINE
  5
2CD
330
17
100
AcDbEntity
  8
0
100
AcDbLine
 10
1587.1094616492887
 20
112.01751490916749
 30
0.0
 11
1590.0701765711888
 21
114.97822983107997
 31
0.0
  0
LINE
  5
2CE
330
17
100
AcDbEntity
  8
0
100
AcDbLine
 10
1587.1094616492887
 20
109.72754959830499
 30
0.0
 11
1590.6150761005638
 21
113.23316404957998
 31
0.0
  0
LINE
  5
2CF
330
17
100
AcDbEntity
  8
0
100
AcDbLine
 10
1590.6150761005638
 20
113.23316404957998
 30
0.0
 11
1592.3601418820638
 21
114.97822983107997
 31
0.0
  0
LINE
  5
2D0
330
17
100
AcDbEntity
  8
0
100
AcDbLine
 10
1587.1094616492887
 20
107.43758428742998
 30
0.0
 11
1590.6150761005638
 21
110.94319873870498
 31
0.0
  0
LINE
  5
2D1
330
17
100
AcDbEntity
  8
0
100
AcDbLine
 10
1590.6150761005638
 20
110.94319873870498
 30
0.0
 11
1594.120690551851
 21
114.44881318999248
 31
0.0
  0
LINE
  5
2D2
330
17
100
AcDbEntity
  8
0
100
AcDbLine
 10
1587.1094616492887
 20
105.14761897655498
 30
0.0
 11
1590.6150761005638
 21
108.65323342782997
 31
0.0
  0
LINE
  5
2D3
330
17
100
AcDbEntity
  8
0
100
AcDbLine
 10
1590.6150761005638
 20
108.65323342782997
 30
0.0
 11
1594.120690551851
 21
112.15884787911747
 31
0.0
  0
LINE
  5
2D4
330
17
100
AcDbEntity
  8
0
100
AcDbLine
 10
1587.1094616492887
 20
102.85765366567998
 30
0.0
 11
1590.6150761005638
 21
106.36326811696748
 31
0.0
  0
LINE
  5
2D5
330
17
100
AcDbEntity
  8
0
100
AcDbLine
 10
1590.6150761005638
 20
106.36326811696748
 30
0.0
 11
1594.120690551851
 21
109.86888256824247
 31
0.0
  0
LINE
  5
2D6
330
17
100
AcDbEntity
  8
0
100
AcDbLine
 10
1587.1094616492887
 20
100.56768835480497
 30
0.0
 11
1590.6150761005638
 21
104.07330280609247
 31
0.0
  0
LINE
  5
2D7
330
17
100
AcDbEntity
  8
0
100
AcDbLine
 10
1590.6150761005638
 20
104.07330280609247
 30
0.0
 11
1594.120690551851
 21
107.57891725736746
 31
0.0
  0
LINE
  5
2D8
330
17
100
AcDbEntity
  8
0
100
AcDbLine
 10
1587.1094616492887
 20
98.27772304394247
 30
0.0
 11
1590.6150761005638
 21
101.78333749521747
 31
0.0
  0
LINE
  5
2D9
330
17
100
AcDbEntity
  8
0
100
AcDbLine
 10
1590.6150761005638
 20
101.78333749521747
 30
0.0
 11
1594.120690551851
 21
105.28895194650502
 31
0.0
  0
LINE
  5
2DA
330
17
100
AcDbEntity
  8
0
100
AcDbLine
 10
1587.1094616492887
 20
95.98775773306747
 30
0.0
 11
1590.6150761005638
 21
99.49337218434246
 31
0.0
  0
LINE
  5
2DB
330
17
100
AcDbEntity
  8
0
100
AcDbLine
 10
1590.6150761005638
 20
99.49337218434246
 30
0.0
 11
1594.120690551851
 21
102.99898663563002
 31
0.0
  0
LINE
  5
2DC
330
17
100
AcDbEntity
  8
0
100
AcDbLine
 10
1587.1094616492887
 20
93.69779242219252
 30
0.0
 11
1590.6150761005638
 21
97.20340687346751
 31
0.0
  0
LINE
  5
2DD
330
17
100
AcDbEntity
  8
0
100
AcDbLine
 10
1590.6150761005638
 20
97.20340687346751
 30
0.0
 11
1594.120690551851
 21
100.70902132475501
 31
0.0
  0
LINE
  5
2DE
330
17
100
AcDbEntity
  8
0
100
AcDbLine
 10
1588.2592491320388
 20
92.55761459407998
 30
0.0
 11
1590.6150761005638
 21
94.91344156260496
 31
0.0
  0
LINE
  5
2DF
330
17
100
AcDbEntity
  8
0
100
AcDbLine
 10
1590.6150761005638
 20
94.91344156260496
 30
0.0
 11
1594.120690551851
 21
98.41905601387995
 31
0.0
  0
LINE
  5
2E0
330
17
100
AcDbEntity
  8
0
100
AcDbLine
 10
1590.6150761005638
 20
92.62347625172995
 30
0.0
 11
1594.120690551851
 21
96.12909070300495
 31
0.0
  0
LINE
  5
2E1
330
17
100
AcDbEntity
  8
0
100
AcDbLine
 10
1592.8391797537888
 20
92.55761459407998
 30
0.0
 11
1594.120690551851
 21
93.83912539213
 31
0.0
  0
LINE
  5
2E2
330
17
100
AcDbEntity
  8
0
100
AcDbLine
 10
1594.120690551851
 20
114.97822983107997
 30
0.0
 11
1587.1094616492887
 21
114.97822983107997
 31
0.0
  0
LINE
  5
2E3
330
17
100
AcDbEntity
  8
0
100
AcDbLine
 10
1587.1094616492887
 20
114.97822983107997
 30
0.0
 11
1587.1094616492887
 21
92.55761459407998
 31
0.0
  0
LINE
  5
2E4
330
17
100
AcDbEntity
  8
0
100
AcDbLine
 10
1587.1094616492887
 20
92.55761459407998
 30
0.0
 11
1594.120690551851
 21
92.55761459407998
 31
0.0
  0
LINE
  5
2E5
330
17
100
AcDbEntity
  8
0
100
AcDbLine
 10
1594.120690551851
 20
92.55761459407998
 30
0.0
 11
1594.120690551851
 21
114.97822983107997
 31
0.0
  0
LINE
  5
2E6
330
17
100
AcDbEntity
  8
0
100
AcDbLine
 10
1594.120690551851
 20
230.53568031257996
 30
0.0
 11
1587.1094616492887
 21
230.53568031257996
 31
0.0
  0
LINE
  5
2E7
330
17
100
AcDbEntity
  8
0
100
AcDbLine
 10
1587.1094616492887
 20
230.53568031257996
 30
0.0
 11
1587.1094616492887
 21
208.11506507557996
 31
0.0
  0
LINE
  5
2E8
330
17
100
AcDbEntity
  8
0
100
AcDbLine
 10
1587.1094616492887
 20
208.11506507557996
 30
0.0
 11
1594.120690551851
 21
208.11506507557996
 31
0.0
  0
LINE
  5
2E9
330
17
100
AcDbEntity
  8
0
100
AcDbLine
 10
1594.120690551851
 20
208.11506507557996
 30
0.0
 11
1594.120690551851
 21
230.53568031257996
 31
0.0
  0
LINE
  5
2EA
330
17
100
AcDbEntity
  8
0
100
AcDbLine
 10
1594.120690551851
 20
290.92023264843
 30
0.0
 11
1587.1094616492887
 21
290.92023264843
 31
0.0
  0
LINE
  5
2EB
330
17
100
AcDbEntity
  8
0
100
AcDbLine
 10
1587.1094616492887
 20
290.92023264843
 30
0.0
 11
1587.1094616492887
 21
268.4996174114175
 31
0.0
  0
LINE
  5
2EC
330
17
100
AcDbEntity
  8
0
100
AcDbLine
 10
1587.1094616492887
 20
268.4996174114175
 30
0.0
 11
1594.120690551851
 21
268.4996174114175
 31
0.0
  0
LINE
  5
2ED
330
17
100
AcDbEntity
  8
0
100
AcDbLine
 10
1594.120690551851
 20
268.4996174114175
 30
0.0
 11
1594.120690551851
 21
290.92023264843
 31
0.0
  0
ARC
  5
2EE
330
17
100
AcDbEntity
  8
0
100
AcDbCircle
 10
1805.285099474425
 20
360.9112196766175
 30
0.0
 40
10.161898941674126
100
AcDbArc
 50
0.0
 51
360.0
  0
ARC
  5
2EF
330
17
100
AcDbEntity
  8
0
100
AcDbCircle
 10
1737.5731413292124
 20
183.04991084617998
 30
0.0
 40
10.161898941674126
100
AcDbArc
 50
0.0
 51
360.0
  0
ENDSEC
  0
SECTION
  2
OBJECTS
  0
DICTIONARY
  5
A
330
0
100
AcDbDictionary
281
1
  3
ACAD_COLOR
350
B
  3
ACAD_GROUP
350
C
  3
ACAD_LAYOUT
350
D
  3
ACAD_MATERIAL
350
E
  3
ACAD_MLEADERSTYLE
350
F
  3
ACAD_MLINESTYLE
350
10
  3
ACAD_PLOTSETTINGS
350
11
  3
ACAD_PLOTSTYLENAME
350
12
  3
ACAD_SCALELIST
350
14
  3
ACAD_TABLESTYLE
350
15
  3
ACAD_VISUALSTYLE
350
16
  0
DICTIONARY
  5
B
330
A
100
AcDbDictionary
281
1
  0
DICTIONARY
  5
C
330
A
100
AcDbDictionary
281
1
  0
DICTIONARY
  5
D
330
A
100
AcDbDictionary
281
1
  3
Model
350
1A
  3
Layout1
350
1E
  0
DICTIONARY
  5
E
330
A
100
AcDbDictionary
281
1
  3
ByBlock
350
1F
  3
ByLayer
350
20
  3
Global
350
21
  0
DICTIONARY
  5
F
330
A
100
AcDbDictionary
281
1
  3
Standard
350
2C
  0
DICTIONARY
  5
10
330
A
100
AcDbDictionary
281
1
  3
Standard
350
22
  0
DICTIONARY
  5
11
330
A
100
AcDbDictionary
281
1
  0
ACDBDICTIONARYWDFLT
  5
12
330
A
100
AcDbDictionary
281
1
  3
Normal
350
13
100
AcDbDictionaryWithDefault
340
13
  0
ACDBPLACEHOLDER
  5
13
330
12
  0
DICTIONARY
  5
14
330
A
100
AcDbDictionary
281
1
  0
DICTIONARY
  5
15
330
A
100
AcDbDictionary
281
1
  0
DICTIONARY
  5
16
330
A
100
AcDbDictionary
281
1
  3
2dWireframe
350
58
  3
Basic
350
59
  3
Brighten
350
5A
  3
ColorChange
350
5B
  3
Conceptual
350
5C
  3
Dim
350
5D
  3
EdgeColorOff
350
5E
  3
Facepattern
350
5F
  3
Flat
350
60
  3
FlatWithEdges
350
61
  3
Gouraud
350
62
  3
GouraudWithEdges
350
63
  3
Hidden
350
64
  3
JitterOff
350
65
  3
Linepattern
350
66
  3
Modeling
350
67
  3
OverhangOff
350
68
  3
Realistic
350
69
  3
Shaded
350
6A
  3
Shaded with edges
350
6B
  3
Shades of Gray
350
6C
  3
Sketchy
350
6D
  3
Thicken
350
6E
  3
Wireframe
350
6F
  3
X-Ray
350
70
  0
LAYOUT
  5
1A
330
D
100
AcDbPlotSettings
  1

  2
Adobe PDF
  4
A4
  6

 40
3.175
 41
3.175
 42
3.175
 43
3.175
 44
209.91
 45
297.03
 46
0.0
 47
0.0
 48
0.0
 49
0.0
140
0.0
141
0.0
142
1.0
143
1.0
 70
1024
 72
0
 73
1
 74
5
  7

 75
16
 76
0
 77
2
 78
300
147
1.0
148
0.0
149
0.0
100
AcDbLayout
  1
Model
 70
1
 71
0
 10
-3.175
 20
-3.175
 11
293.857
 21
206.735
 12
0.0
 22
0.0
 32
0.0
 14
29.068
 24
20.356
 34
0.0
 15
261.614
 25
183.204
 35
0.0
146
0.0
 13
0.0
 23
0.0
 33
0.0
 16
1.0
 26
0.0
 36
0.0
 17
0.0
 27
1.0
 37
0.0
 76
1
330
17
  0
LAYOUT
  5
1E
330
D
100
AcDbPlotSettings
  1

  2
Adobe PDF
  4
A4
  6

 40
3.175
 41
3.175
 42
3.175
 43
3.175
 44
209.91
 45
297.03
 46
0.0
 47
0.0
 48
0.0
 49
0.0
140
0.0
141
0.0
142
1.0
143
1.0
 70
0
 72
0
 73
1
 74
5
  7

 75
16
 76
0
 77
2
 78
300
147
1.0
148
0.0
149
0.0
100
AcDbLayout
  1
Layout1
 70
1
 71
1
 10
-3.175
 20
-3.175
 11
293.857
 21
206.735
 12
0.0
 22
0.0
 32
0.0
 14
29.068
 24
20.356
 34
0.0
 15
261.614
 25
183.204
 35
0.0
146
0.0
 13
0.0
 23
0.0
 33
0.0
 16
1.0
 26
0.0
 36
0.0
 17
0.0
 27
1.0
 37
0.0
 76
1
330
1B
  0
MATERIAL
  5
1F
102
{ACAD_REACTORS
330
E
102
}
330
E
100
AcDbMaterial
  1
ByBlock
  2

 70
0
 40
1.0
 71
1
 41
1.0
 91
-1023410177
 42
1.0
 72
1
  3

 73
1
 74
1
 75
1
 44
0.5
 73
0
 45
1.0
 46
1.0
 77
1
  4

 78
1
 79
1
170
1
 48
1.0
171
1
  6

172
1
173
1
174
1
140
1.0
141
1.0
175
1
  7

176
1
177
1
178
1
143
1.0
179
1
  8

270
1
271
1
272
1
145
1.0
146
1.0
273
1
  9

274
1
275
1
276
1
 42
1.0
 72
1
  3

 73
1
 74
1
 75
1
 94
63
  0
MATERIAL
  5
20
102
{ACAD_REACTORS
330
E
102
}
330
E
100
AcDbMaterial
  1
ByLayer
  2

 70
0
 40
1.0
 71
1
 41
1.0
 91
-1023410177
 42
1.0
 72
1
  3

 73
1
 74
1
 75
1
 44
0.5
 73
0
 45
1.0
 46
1.0
 77
1
  4

 78
1
 79
1
170
1
 48
1.0
171
1
  6

172
1
173
1
174
1
140
1.0
141
1.0
175
1
  7

176
1
177
1
178
1
143
1.0
179
1
  8

270
1
271
1
272
1
145
1.0
146
1.0
273
1
  9

274
1
275
1
276
1
 42
1.0
 72
1
  3

 73
1
 74
1
 75
1
 94
63
  0
MATERIAL
  5
21
102
{ACAD_REACTORS
330
E
102
}
330
E
100
AcDbMaterial
  1
Global
  2

 70
0
 40
1.0
 71
1
 41
1.0
 91
-1023410177
 42
1.0
 72
1
  3

 73
1
 74
1
 75
1
 44
0.5
 73
0
 45
1.0
 46
1.0
 77
1
  4

 78
1
 79
1
170
1
 48
1.0
171
1
  6

172
1
173
1
174
1
140
1.0
141
1.0
175
1
  7

176
1
177
1
178
1
143
1.0
179
1
  8

270
1
271
1
272
1
145
1.0
146
1.0
273
1
  9

274
1
275
1
276
1
 42
1.0
 72
1
  3

 73
1
 74
1
 75
1
 94
63
  0
MLINESTYLE
  5
22
102
{ACAD_REACTORS
330
10
102
}
330
10
100
AcDbMlineStyle
  2
Standard
 70
0
  3

 62
256
 51
90.0
 52
90.0
 71
2
 49
0.5
 62
256
  6
BYLAYER
 49
-0.5
 62
256
  6
BYLAYER
  0
MLEADERSTYLE
  5
2C
102
{ACAD_REACTORS
330
F
102
}
330
F
100
AcDbMLeaderStyle
179
2
170
2
171
1
172
0
 90
2
 40
0.0
 41
0.0
173
1
 91
-1056964608
 92
-2
290
1
 42
2.0
291
1
 43
8.0
  3
Standard
 44
4.0
300

342
29
174
1
175
1
176
0
178
1
 93
-1056964608
 45
4.0
292
0
297
0
 46
4.0
 94
-1056964608
 47
1.0
 49
0.0
140
1.0
294
1
141
0.0
177
0
142
1.0
295
0
296
0
143
3.75
271
0
272
9
272
9
  0
VISUALSTYLE
  5
58
102
{ACAD_REACTORS
330
16
102
}
330
16
100
AcDbVisualStyle
  2
2dWireframe
 70
4
 90
0
 40
0.6
 62
7
290
0
291
0
  0
VISUALSTYLE
  5
59
102
{ACAD_REACTORS
330
16
102
}
330
16
100
AcDbVisualStyle
  2
Basic
 70
7
 90
1
 40
0.6
 62
7
290
0
291
1
  0
VISUALSTYLE
  5
5A
102
{ACAD_REACTORS
330
16
102
}
330
16
100
AcDbVisualStyle
  2
Brighten
 70
12
 90
2
 40
0.6
 62
7
290
0
291
1
  0
VISUALSTYLE
  5
5B
102
{ACAD_REACTORS
330
16
102
}
330
16
100
AcDbVisualStyle
  2
ColorChange
 70
16
 90
2
 40
0.6
 62
8
290
0
291
1
  0
VISUALSTYLE
  5
5C
102
{ACAD_REACTORS
330
16
102
}
330
16
100
AcDbVisualStyle
  2
Conceptual
 70
9
 90
3
 40
0.6
 62
7
290
0
291
0
  0
VISUALSTYLE
  5
5D
102
{ACAD_REACTORS
330
16
102
}
330
16
100
AcDbVisualStyle
  2
Dim
 70
11
 90
2
 40
0.6
 62
7
290
0
291
1
  0
VISUALSTYLE
  5
5E
102
{ACAD_REACTORS
330
16
102
}
330
16
100
AcDbVisualStyle
  2
EdgeColorOff
 70
22
 90
2
 40
0.6
 62
7
290
0
291
1
  0
VISUALSTYLE
  5
5F
102
{ACAD_REACTORS
330
16
102
}
330
16
100
AcDbVisualStyle
  2
Facepattern
 70
15
 90
2
 40
0.6
 62
7
290
0
291
1
  0
VISUALSTYLE
  5
60
102
{ACAD_REACTORS
330
16
102
}
330
16
100
AcDbVisualStyle
  2
Flat
 70
0
 90
2
 40
0.6
 62
7
290
0
291
1
  0
VISUALSTYLE
  5
61
102
{ACAD_REACTORS
330
16
102
}
330
16
100
AcDbVisualStyle
  2
FlatWithEdges
 70
1
 90
2
 40
0.6
 62
7
290
0
291
1
  0
VISUALSTYLE
  5
62
102
{ACAD_REACTORS
330
16
102
}
330
16
100
AcDbVisualStyle
  2
Gouraud
 70
2
 90
2
 40
0.6
 62
7
290
0
291
1
  0
VISUALSTYLE
  5
63
102
{ACAD_REACTORS
330
16
102
}
330
16
100
AcDbVisualStyle
  2
GouraudWithEdges
 70
3
 90
2
 40
0.6
 62
7
290
0
291
1
  0
VISUALSTYLE
  5
64
102
{ACAD_REACTORS
330
16
102
}
330
16
100
AcDbVisualStyle
  2
Hidden
 70
6
 90
1
 40
0.6
 62
7
290
0
291
0
  0
VISUALSTYLE
  5
65
102
{ACAD_REACTORS
330
16
102
}
330
16
100
AcDbVisualStyle
  2
JitterOff
 70
20
 90
2
 40
0.6
 62
7
290
0
291
1
  0
VISUALSTYLE
  5
66
102
{ACAD_REACTORS
330
16
102
}
330
16
100
AcDbVisualStyle
  2
Linepattern
 70
14
 90
2
 40
0.6
 62
7
290
0
291
1
  0
VISUALSTYLE
  5
67
102
{ACAD_REACTORS
330
16
102
}
330
16
100
AcDbVisualStyle
  2
Modeling
 70
10
 90
2
 40
0.6
 62
7
290
0
291
0
  0
VISUALSTYLE
  5
68
102
{ACAD_REACTORS
330
16
102
}
330
16
100
AcDbVisualStyle
  2
OverhangOff
 70
21
 90
2
 40
0.6
 62
7
290
0
291
1
  0
VISUALSTYLE
  5
69
102
{ACAD_REACTORS
330
16
102
}
330
16
100
AcDbVisualStyle
  2
Realistic
 70
8
 90
2
 40
0.6
 62
7
290
0
291
0
  0
VISUALSTYLE
  5
6A
102
{ACAD_REACTORS
330
16
102
}
330
16
100
AcDbVisualStyle
  2
Shaded
 70
27
 90
2
 40
0.6
 62
7
290
0
291
0
  0
VISUALSTYLE
  5
6B
102
{ACAD_REACTORS
330
16
102
}
330
16
100
AcDbVisualStyle
  2
Shaded with edges
 70
26
 90
2
 40
0.6
 62
7
290
0
291
0
  0
VISUALSTYLE
  5
6C
102
{ACAD_REACTORS
330
16
102
}
330
16
100
AcDbVisualStyle
  2
Shades of Gray
 70
23
 90
2
 40
0.6
 62
7
290
0
291
0
  0
VISUALSTYLE
  5
6D
102
{ACAD_REACTORS
330
16
102
}
330
16
100
AcDbVisualStyle
  2
Sketchy
 70
24
 90
1
 40
0.6
 62
7
290
0
291
0
  0
VISUALSTYLE
  5
6E
102
{ACAD_REACTORS
330
16
102
}
330
16
100
AcDbVisualStyle
  2
Thicken
 70
13
 90
2
 40
0.6
 62
7
290
0
291
1
  0
VISUALSTYLE
  5
6F
102
{ACAD_REACTORS
330
16
102
}
330
16
100
AcDbVisualStyle
  2
Wireframe
 70
5
 90
0
 40
0.6
 62
7
290
0
291
0
  0
VISUALSTYLE
  5
70
102
{ACAD_REACTORS
330
16
102
}
330
16
100
AcDbVisualStyle
  2
X-Ray
 70
25
 90
2
 40
0.5
 62
7
290
0
291
0
  0
ENDSEC
  0
EOF
